%TF.GenerationSoftware,KiCad,Pcbnew,10.0.2*%
%TF.CreationDate,2026-07-10T17:43:20+02:00*%
%TF.ProjectId,cover,636f7665-722e-46b6-9963-61645f706362,1.0*%
%TF.SameCoordinates,Original*%
%TF.FileFunction,Soldermask,Top*%
%TF.FilePolarity,Negative*%
%FSLAX46Y46*%
G04 Gerber Fmt 4.6, Leading zero omitted, Abs format (unit mm)*
G04 Created by KiCad (PCBNEW 10.0.2) date 2026-07-10 17:43:20*
%MOMM*%
%LPD*%
G01*
G04 APERTURE LIST*
%ADD10C,0.000000*%
G04 APERTURE END LIST*
D10*
G36*
X127350098Y-36109571D02*
G01*
X128526977Y-36480366D01*
X129626222Y-36853434D01*
X130649063Y-37229477D01*
X131596734Y-37609200D01*
X132470466Y-37993307D01*
X133271491Y-38382502D01*
X134001041Y-38777489D01*
X134660347Y-39178971D01*
X135250642Y-39587654D01*
X135773158Y-40004240D01*
X136229125Y-40429434D01*
X136619777Y-40863940D01*
X136946345Y-41308462D01*
X137210060Y-41763703D01*
X137412155Y-42230368D01*
X137445878Y-42327006D01*
X137477156Y-42424376D01*
X137505991Y-42522506D01*
X137532383Y-42621424D01*
X137556335Y-42721154D01*
X137577848Y-42821725D01*
X137596923Y-42923163D01*
X137613563Y-43025495D01*
X137627768Y-43128747D01*
X137639540Y-43232946D01*
X137648880Y-43338119D01*
X137655791Y-43444293D01*
X137660273Y-43551494D01*
X137662329Y-43659750D01*
X137661959Y-43769086D01*
X137659165Y-43879531D01*
X137659165Y-43879533D01*
X137476805Y-43543719D01*
X137271859Y-43215900D01*
X137045254Y-42896001D01*
X136797916Y-42583950D01*
X136530772Y-42279670D01*
X136244750Y-41983088D01*
X135940775Y-41694129D01*
X135619775Y-41412719D01*
X134930404Y-40872249D01*
X134184051Y-40361082D01*
X133388131Y-39878625D01*
X132550057Y-39424282D01*
X131677242Y-38997459D01*
X130777101Y-38597561D01*
X129857048Y-38223993D01*
X128924496Y-37876160D01*
X127986859Y-37553468D01*
X127051552Y-37255322D01*
X126125987Y-36981127D01*
X125217579Y-36730289D01*
X125254784Y-36690498D01*
X125474624Y-36451902D01*
X125686971Y-36214969D01*
X125893116Y-35978262D01*
X126094353Y-35740344D01*
X127350098Y-36109571D01*
G37*
G36*
X83688897Y-35978238D02*
G01*
X83895249Y-36215120D01*
X84107577Y-36452066D01*
X84327156Y-36690498D01*
X84364190Y-36729945D01*
X82530288Y-37254991D01*
X81595018Y-37553152D01*
X80657420Y-37875861D01*
X79724905Y-38223712D01*
X78804887Y-38597298D01*
X77904778Y-38997211D01*
X77031991Y-39424045D01*
X76193938Y-39878393D01*
X75398031Y-40360847D01*
X74651684Y-40872001D01*
X73962308Y-41412448D01*
X73337317Y-41982780D01*
X72784123Y-42583590D01*
X72536767Y-42895610D01*
X72310139Y-43215471D01*
X72105167Y-43543249D01*
X71922777Y-43879018D01*
X71920012Y-43768575D01*
X71919663Y-43659243D01*
X71921733Y-43550995D01*
X71926225Y-43443803D01*
X71933139Y-43337639D01*
X71942479Y-43232477D01*
X71954247Y-43128287D01*
X71968446Y-43025044D01*
X71985076Y-42922719D01*
X72004142Y-42821286D01*
X72025644Y-42720715D01*
X72049586Y-42620981D01*
X72075969Y-42522055D01*
X72104795Y-42423910D01*
X72136068Y-42326519D01*
X72169789Y-42229853D01*
X72263210Y-41995049D01*
X72371882Y-41763188D01*
X72495957Y-41534183D01*
X72635590Y-41307947D01*
X72790936Y-41084390D01*
X72962148Y-40863426D01*
X73149380Y-40644965D01*
X73352787Y-40428921D01*
X73572521Y-40215205D01*
X73808738Y-40003729D01*
X74061591Y-39794406D01*
X74331235Y-39587147D01*
X74617822Y-39381864D01*
X74921508Y-39178470D01*
X75242447Y-38976876D01*
X75580791Y-38776994D01*
X75936696Y-38578737D01*
X76310316Y-38382016D01*
X76701804Y-38186744D01*
X77111314Y-37992833D01*
X77985018Y-37608740D01*
X78932659Y-37229033D01*
X79955470Y-36853010D01*
X81054683Y-36479966D01*
X82231530Y-36109197D01*
X83487244Y-35740000D01*
X83688897Y-35978238D01*
G37*
G36*
X87431140Y-30674943D02*
G01*
X88700561Y-30760188D01*
X90050334Y-30892293D01*
X91464923Y-31063100D01*
X92928789Y-31264453D01*
X94426397Y-31488194D01*
X97460686Y-31970213D01*
X97781252Y-32021717D01*
X97633592Y-32094769D01*
X97486482Y-32168951D01*
X97339953Y-32244232D01*
X97194037Y-32320578D01*
X97099455Y-32371694D01*
X97005697Y-32424232D01*
X96912489Y-32477739D01*
X96819555Y-32531762D01*
X96699796Y-32601353D01*
X96639674Y-32635825D01*
X96579260Y-32669909D01*
X96402667Y-32769478D01*
X96226914Y-32870758D01*
X96052064Y-32973718D01*
X95878183Y-33078325D01*
X95864016Y-33087314D01*
X95850263Y-33096766D01*
X95836932Y-33106666D01*
X95824030Y-33117001D01*
X95811563Y-33127754D01*
X95799538Y-33138913D01*
X95787962Y-33150462D01*
X95776842Y-33162388D01*
X95766186Y-33174675D01*
X95755999Y-33187309D01*
X95746289Y-33200276D01*
X95737063Y-33213560D01*
X95728327Y-33227149D01*
X95720089Y-33241027D01*
X95712356Y-33255179D01*
X95705134Y-33269592D01*
X95698430Y-33284250D01*
X95692251Y-33299140D01*
X95686604Y-33314247D01*
X95681497Y-33329556D01*
X95676935Y-33345052D01*
X95672926Y-33360723D01*
X95669477Y-33376552D01*
X95666594Y-33392525D01*
X95664285Y-33408628D01*
X95662557Y-33424847D01*
X95661415Y-33441167D01*
X95660868Y-33457574D01*
X95660922Y-33474052D01*
X95661584Y-33490588D01*
X95662862Y-33507167D01*
X95664761Y-33523775D01*
X95670012Y-33553887D01*
X95677651Y-33584359D01*
X95687621Y-33614926D01*
X95699863Y-33645322D01*
X95714320Y-33675282D01*
X95730933Y-33704541D01*
X95749644Y-33732833D01*
X95770396Y-33759893D01*
X95793130Y-33785454D01*
X95817788Y-33809253D01*
X95830820Y-33820408D01*
X95844312Y-33831023D01*
X95858256Y-33841064D01*
X95872645Y-33850498D01*
X95887471Y-33859293D01*
X95902727Y-33867414D01*
X95918407Y-33874830D01*
X95934502Y-33881506D01*
X95951006Y-33887409D01*
X95967911Y-33892506D01*
X95985210Y-33896765D01*
X96002895Y-33900151D01*
X96124885Y-33918889D01*
X96249134Y-33935334D01*
X96375838Y-33949518D01*
X96505190Y-33961473D01*
X96199093Y-34099621D01*
X96274368Y-34394004D01*
X96175322Y-34110989D01*
X95983452Y-34188741D01*
X95703344Y-34300986D01*
X95500168Y-34379852D01*
X95296329Y-34457006D01*
X95091876Y-34532415D01*
X94886858Y-34606048D01*
X94869113Y-34612796D01*
X94851621Y-34620330D01*
X94834418Y-34628630D01*
X94817538Y-34637674D01*
X94801015Y-34647442D01*
X94784885Y-34657911D01*
X94769182Y-34669060D01*
X94753940Y-34680869D01*
X94739195Y-34693315D01*
X94724981Y-34706377D01*
X94711332Y-34720035D01*
X94698284Y-34734265D01*
X94685871Y-34749048D01*
X94674127Y-34764362D01*
X94663087Y-34780186D01*
X94652787Y-34796497D01*
X94643260Y-34813276D01*
X94634541Y-34830499D01*
X94626666Y-34848147D01*
X94619668Y-34866198D01*
X94613582Y-34884630D01*
X94608443Y-34903422D01*
X94604286Y-34922553D01*
X94601145Y-34942001D01*
X94599056Y-34961745D01*
X94598051Y-34981764D01*
X94598167Y-35002036D01*
X94599438Y-35022539D01*
X94601899Y-35043254D01*
X94605583Y-35064157D01*
X94610527Y-35085229D01*
X94616764Y-35106447D01*
X94622212Y-35122247D01*
X94628274Y-35137759D01*
X94634930Y-35152970D01*
X94642162Y-35167865D01*
X94649952Y-35182430D01*
X94658280Y-35196652D01*
X94667129Y-35210516D01*
X94676480Y-35224008D01*
X94686314Y-35237115D01*
X94696612Y-35249821D01*
X94707357Y-35262114D01*
X94718529Y-35273979D01*
X94730110Y-35285401D01*
X94742081Y-35296368D01*
X94754424Y-35306865D01*
X94767120Y-35316878D01*
X94780151Y-35326393D01*
X94793498Y-35335395D01*
X94807142Y-35343871D01*
X94821065Y-35351808D01*
X94835249Y-35359190D01*
X94849674Y-35366003D01*
X94864322Y-35372235D01*
X94879174Y-35377870D01*
X94894213Y-35382894D01*
X94909419Y-35387294D01*
X94924774Y-35391056D01*
X94940259Y-35394166D01*
X94955856Y-35396608D01*
X94971545Y-35398371D01*
X94987310Y-35399438D01*
X95003130Y-35399797D01*
X95010714Y-35399716D01*
X95018284Y-35399475D01*
X95025840Y-35399072D01*
X95033380Y-35398508D01*
X95040902Y-35397784D01*
X95048407Y-35396899D01*
X95055891Y-35395855D01*
X95063355Y-35394651D01*
X95078215Y-35391764D01*
X95092975Y-35388242D01*
X95107626Y-35384086D01*
X95122158Y-35379299D01*
X95457389Y-35257806D01*
X95790957Y-35131339D01*
X96448000Y-34873044D01*
X96590111Y-34816716D01*
X97010457Y-34646674D01*
X97395033Y-34483705D01*
X97750380Y-34324935D01*
X98083038Y-34167490D01*
X98282993Y-34068930D01*
X98482108Y-33968643D01*
X98680384Y-33866709D01*
X98877819Y-33763208D01*
X98895287Y-33753382D01*
X98912122Y-33742726D01*
X98928313Y-33731273D01*
X98943848Y-33719058D01*
X98958714Y-33706118D01*
X98972901Y-33692487D01*
X98986397Y-33678199D01*
X98999189Y-33663290D01*
X99011266Y-33647794D01*
X99022617Y-33631747D01*
X99033228Y-33615184D01*
X99043089Y-33598139D01*
X99052188Y-33580647D01*
X99060513Y-33562744D01*
X99068052Y-33544464D01*
X99074793Y-33525842D01*
X99080725Y-33506913D01*
X99085835Y-33487712D01*
X99090113Y-33468275D01*
X99093545Y-33448635D01*
X99096121Y-33428829D01*
X99097828Y-33408890D01*
X99098656Y-33388855D01*
X99098591Y-33368757D01*
X99097622Y-33348631D01*
X99095738Y-33328514D01*
X99092926Y-33308439D01*
X99089175Y-33288442D01*
X99084473Y-33268557D01*
X99078808Y-33248820D01*
X99072169Y-33229265D01*
X99064543Y-33209927D01*
X99057752Y-33194609D01*
X99050468Y-33179666D01*
X99042701Y-33165105D01*
X99034463Y-33150933D01*
X99025764Y-33137158D01*
X99016616Y-33123786D01*
X99007030Y-33110826D01*
X98997017Y-33098285D01*
X98986587Y-33086169D01*
X98975753Y-33074487D01*
X98964524Y-33063245D01*
X98952913Y-33052452D01*
X98940930Y-33042113D01*
X98928586Y-33032237D01*
X98915893Y-33022831D01*
X98902861Y-33013902D01*
X98889501Y-33005457D01*
X98875826Y-32997504D01*
X98861844Y-32990050D01*
X98847569Y-32983103D01*
X98833010Y-32976669D01*
X98818179Y-32970757D01*
X98803087Y-32965373D01*
X98787745Y-32960524D01*
X98772163Y-32956219D01*
X98756355Y-32952463D01*
X98740329Y-32949266D01*
X98724097Y-32946633D01*
X98707671Y-32944573D01*
X98691061Y-32943092D01*
X98674279Y-32942199D01*
X98657335Y-32941899D01*
X98643950Y-32942093D01*
X98630544Y-32942674D01*
X98617130Y-32943643D01*
X98603720Y-32945000D01*
X98590326Y-32946744D01*
X98576961Y-32948875D01*
X98563636Y-32951395D01*
X98550364Y-32954302D01*
X98471299Y-32971960D01*
X98391976Y-32988731D01*
X98312395Y-33004565D01*
X98232554Y-33019414D01*
X98014481Y-33054209D01*
X97949745Y-33062125D01*
X97885979Y-33069347D01*
X97823116Y-33075890D01*
X97761093Y-33081771D01*
X97900016Y-33014206D01*
X98039327Y-32947304D01*
X98179090Y-32881274D01*
X98319370Y-32816327D01*
X98454625Y-32755034D01*
X98590349Y-32694822D01*
X98726491Y-32635548D01*
X98863005Y-32577065D01*
X99021484Y-32511192D01*
X99180642Y-32446432D01*
X99340446Y-32382868D01*
X99500864Y-32320579D01*
X99506421Y-32318408D01*
X99511861Y-32316162D01*
X99517196Y-32313848D01*
X99522438Y-32311471D01*
X99527600Y-32309038D01*
X99532693Y-32306554D01*
X99542721Y-32301459D01*
X100032204Y-32379512D01*
X100532150Y-32456660D01*
X100695446Y-32481981D01*
X101267030Y-32567785D01*
X101831637Y-32650101D01*
X101890547Y-32655268D01*
X102247544Y-32633339D01*
X102932298Y-32597521D01*
X103352064Y-32579490D01*
X103799146Y-32564092D01*
X104255337Y-32553362D01*
X104702427Y-32549332D01*
X104789070Y-32549505D01*
X105206550Y-32554617D01*
X105646177Y-32565341D01*
X106513941Y-32596874D01*
X107657967Y-32653029D01*
X107724114Y-32653890D01*
X108789200Y-32496907D01*
X109871565Y-32329880D01*
X112107643Y-31972280D01*
X113757153Y-31707525D01*
X114491642Y-31591426D01*
X115277468Y-31469900D01*
X116057091Y-31352509D01*
X116865311Y-31235031D01*
X117860470Y-31098345D01*
X118789882Y-30980310D01*
X119656855Y-30880621D01*
X120464695Y-30798969D01*
X121216708Y-30735050D01*
X121916201Y-30688554D01*
X122566480Y-30659177D01*
X123170853Y-30646610D01*
X122979202Y-30741601D01*
X122788232Y-30837963D01*
X122597973Y-30935715D01*
X122408455Y-31034871D01*
X122276359Y-31105950D01*
X122145425Y-31178984D01*
X122015265Y-31253341D01*
X121885491Y-31328393D01*
X121719479Y-31424188D01*
X121636231Y-31471625D01*
X121552693Y-31518562D01*
X121307619Y-31656890D01*
X121063836Y-31797463D01*
X120821345Y-31940264D01*
X120580147Y-32085278D01*
X120562828Y-32096227D01*
X120546016Y-32107744D01*
X120529719Y-32119812D01*
X120513946Y-32132414D01*
X120498706Y-32145531D01*
X120484007Y-32159146D01*
X120469857Y-32173242D01*
X120456264Y-32187800D01*
X120443238Y-32202802D01*
X120430787Y-32218232D01*
X120418918Y-32234072D01*
X120407642Y-32250303D01*
X120396965Y-32266908D01*
X120386897Y-32283870D01*
X120377445Y-32301170D01*
X120368620Y-32318791D01*
X120360427Y-32336716D01*
X120352878Y-32354926D01*
X120345979Y-32373404D01*
X120339739Y-32392132D01*
X120334167Y-32411093D01*
X120329271Y-32430269D01*
X120325059Y-32449642D01*
X120321541Y-32469194D01*
X120318724Y-32488908D01*
X120316616Y-32508766D01*
X120315228Y-32528750D01*
X120314566Y-32548843D01*
X120314639Y-32569027D01*
X120315456Y-32589284D01*
X120317025Y-32609597D01*
X120319355Y-32629947D01*
X120325730Y-32666646D01*
X120334991Y-32703791D01*
X120347070Y-32741056D01*
X120361896Y-32778118D01*
X120379401Y-32814651D01*
X120399516Y-32850331D01*
X120422171Y-32884831D01*
X120447298Y-32917827D01*
X120474826Y-32948995D01*
X120504688Y-32978009D01*
X120520472Y-32991606D01*
X120536813Y-33004543D01*
X120553703Y-33016780D01*
X120571134Y-33028274D01*
X120589095Y-33038987D01*
X120607579Y-33048877D01*
X120626577Y-33057903D01*
X120646081Y-33066025D01*
X120666082Y-33073202D01*
X120686570Y-33079394D01*
X120707538Y-33084560D01*
X120728977Y-33088660D01*
X120844920Y-33107069D01*
X120961471Y-33124056D01*
X121078597Y-33139617D01*
X121196259Y-33153751D01*
X121314421Y-33166456D01*
X121433049Y-33177729D01*
X121552104Y-33187570D01*
X121671551Y-33195975D01*
X121466695Y-33290650D01*
X121261585Y-33383904D01*
X120912254Y-33539105D01*
X120843350Y-33567527D01*
X120574504Y-33676543D01*
X120324520Y-33775611D01*
X120044299Y-33884335D01*
X119763270Y-33990670D01*
X119481402Y-34094680D01*
X119198662Y-34196428D01*
X119176830Y-34204656D01*
X119155590Y-34213630D01*
X119134955Y-34223330D01*
X119114938Y-34233735D01*
X119095551Y-34244827D01*
X119076807Y-34256583D01*
X119058718Y-34268985D01*
X119041298Y-34282012D01*
X119024560Y-34295644D01*
X119008515Y-34309861D01*
X118993177Y-34324643D01*
X118978559Y-34339969D01*
X118964672Y-34355821D01*
X118951531Y-34372176D01*
X118939148Y-34389016D01*
X118927535Y-34406320D01*
X118916705Y-34424068D01*
X118906671Y-34442241D01*
X118897446Y-34460817D01*
X118889042Y-34479777D01*
X118881473Y-34499100D01*
X118874750Y-34518767D01*
X118868887Y-34538757D01*
X118863897Y-34559051D01*
X118859792Y-34579627D01*
X118856584Y-34600467D01*
X118854288Y-34621549D01*
X118852915Y-34642854D01*
X118852478Y-34664362D01*
X118852989Y-34686052D01*
X118854463Y-34707905D01*
X118856911Y-34729900D01*
X118860294Y-34751450D01*
X118864496Y-34772555D01*
X118869504Y-34793206D01*
X118875309Y-34813395D01*
X118881901Y-34833111D01*
X118889269Y-34852346D01*
X118897404Y-34871089D01*
X118906295Y-34889332D01*
X118915931Y-34907066D01*
X118926304Y-34924280D01*
X118937402Y-34940966D01*
X118949215Y-34957114D01*
X118961733Y-34972715D01*
X118974945Y-34987760D01*
X118988843Y-35002239D01*
X119003414Y-35016144D01*
X119018650Y-35029463D01*
X119034540Y-35042189D01*
X119051073Y-35054312D01*
X119068240Y-35065823D01*
X119086030Y-35076712D01*
X119104433Y-35086969D01*
X119123439Y-35096587D01*
X119143037Y-35105554D01*
X119163218Y-35113863D01*
X119183971Y-35121503D01*
X119205286Y-35128465D01*
X119227152Y-35134741D01*
X119249560Y-35140319D01*
X119272500Y-35145192D01*
X119295960Y-35149351D01*
X119319931Y-35152784D01*
X119467762Y-35170588D01*
X119616908Y-35186660D01*
X119767299Y-35200995D01*
X119918860Y-35213590D01*
X120071519Y-35224442D01*
X120225204Y-35233545D01*
X120379841Y-35240896D01*
X120535359Y-35246490D01*
X120349852Y-35314818D01*
X120167252Y-35380870D01*
X119987235Y-35444758D01*
X119809479Y-35506594D01*
X119699472Y-35544921D01*
X119589596Y-35584022D01*
X119370228Y-35663518D01*
X119083469Y-35767301D01*
X118939491Y-35817723D01*
X118794899Y-35866434D01*
X118778732Y-35872073D01*
X118762860Y-35878259D01*
X118747292Y-35884977D01*
X118732042Y-35892211D01*
X118702539Y-35908170D01*
X118674441Y-35926018D01*
X118647842Y-35945636D01*
X118622831Y-35966906D01*
X118599503Y-35989709D01*
X118577947Y-36013927D01*
X118558257Y-36039440D01*
X118540524Y-36066131D01*
X118524839Y-36093881D01*
X118511296Y-36122571D01*
X118505355Y-36137231D01*
X118499985Y-36152082D01*
X118495195Y-36167109D01*
X118490998Y-36182297D01*
X118487405Y-36197630D01*
X118484428Y-36213095D01*
X118482078Y-36228677D01*
X118480366Y-36244360D01*
X118472096Y-36267958D01*
X118465866Y-36288587D01*
X118461370Y-36309098D01*
X118458582Y-36329445D01*
X118457476Y-36349580D01*
X118458024Y-36369454D01*
X118460202Y-36389020D01*
X118463982Y-36408230D01*
X118469339Y-36427035D01*
X118476247Y-36445389D01*
X118484678Y-36463242D01*
X118494607Y-36480547D01*
X118506008Y-36497256D01*
X118518855Y-36513321D01*
X118533120Y-36528695D01*
X118548779Y-36543329D01*
X118565804Y-36557174D01*
X118586436Y-36577645D01*
X118607369Y-36596809D01*
X118628590Y-36614665D01*
X118650085Y-36631212D01*
X118671840Y-36646446D01*
X118693842Y-36660366D01*
X118716078Y-36672969D01*
X118738532Y-36684255D01*
X118761193Y-36694220D01*
X118784046Y-36702864D01*
X118807077Y-36710183D01*
X118830274Y-36716176D01*
X118853622Y-36720840D01*
X118877108Y-36724175D01*
X118900718Y-36726177D01*
X118924439Y-36726845D01*
X118938761Y-36726602D01*
X118953034Y-36725873D01*
X118967242Y-36724655D01*
X118981370Y-36722947D01*
X118995401Y-36720746D01*
X119009319Y-36718051D01*
X119023107Y-36714859D01*
X119036751Y-36711169D01*
X119326481Y-36630554D01*
X119487926Y-36586066D01*
X119649112Y-36540658D01*
X119809783Y-36493474D01*
X119969681Y-36443658D01*
X120200179Y-36367508D01*
X120429772Y-36288435D01*
X120658589Y-36207263D01*
X120886761Y-36124815D01*
X121335673Y-35958200D01*
X121792949Y-35781233D01*
X122256878Y-35594544D01*
X122725750Y-35398763D01*
X122977989Y-35290553D01*
X123229291Y-35180323D01*
X123479625Y-35067995D01*
X123728958Y-34953486D01*
X123750485Y-34942759D01*
X123771015Y-34930989D01*
X123790550Y-34918228D01*
X123809095Y-34904526D01*
X123826653Y-34889932D01*
X123843228Y-34874497D01*
X123858823Y-34858272D01*
X123873442Y-34841306D01*
X123887089Y-34823649D01*
X123899766Y-34805353D01*
X123911479Y-34786466D01*
X123922230Y-34767040D01*
X123932022Y-34747124D01*
X123940861Y-34726769D01*
X123948748Y-34706025D01*
X123955688Y-34684942D01*
X123961684Y-34663570D01*
X123966741Y-34641960D01*
X123970860Y-34620161D01*
X123974047Y-34598225D01*
X123976305Y-34576201D01*
X123977637Y-34554139D01*
X123978046Y-34532090D01*
X123977537Y-34510104D01*
X123976114Y-34488230D01*
X123973778Y-34466520D01*
X123970535Y-34445024D01*
X123966388Y-34423791D01*
X123961341Y-34402872D01*
X123955396Y-34382317D01*
X123948558Y-34362176D01*
X123940830Y-34342500D01*
X123933299Y-34325519D01*
X123925244Y-34308978D01*
X123916676Y-34292883D01*
X123907606Y-34277240D01*
X123898043Y-34262056D01*
X123887997Y-34247338D01*
X123877478Y-34233092D01*
X123866497Y-34219325D01*
X123855063Y-34206043D01*
X123843186Y-34193253D01*
X123830877Y-34180961D01*
X123818145Y-34169173D01*
X123805001Y-34157898D01*
X123791454Y-34147140D01*
X123777515Y-34136906D01*
X123763193Y-34127204D01*
X123748498Y-34118038D01*
X123733442Y-34109417D01*
X123718033Y-34101347D01*
X123702281Y-34093833D01*
X123686197Y-34086883D01*
X123669791Y-34080503D01*
X123653073Y-34074700D01*
X123636053Y-34069480D01*
X123618740Y-34064849D01*
X123601145Y-34060815D01*
X123583278Y-34057383D01*
X123565149Y-34054561D01*
X123546768Y-34052355D01*
X123528144Y-34050771D01*
X123509289Y-34049815D01*
X123490212Y-34049495D01*
X123476616Y-34049658D01*
X123462964Y-34050147D01*
X123449263Y-34050967D01*
X123435522Y-34052122D01*
X123421748Y-34053616D01*
X123407950Y-34055454D01*
X123394136Y-34057639D01*
X123380314Y-34060175D01*
X123282690Y-34078735D01*
X123185064Y-34096650D01*
X123087311Y-34113854D01*
X122989300Y-34130282D01*
X122658226Y-34179548D01*
X122452937Y-34203963D01*
X122251749Y-34225002D01*
X122055017Y-34242650D01*
X121863098Y-34256890D01*
X121800271Y-34260873D01*
X121736668Y-34264469D01*
X122238181Y-34057739D01*
X122703747Y-33857324D01*
X123139921Y-33660365D01*
X123553261Y-33464002D01*
X123828384Y-33328231D01*
X124102409Y-33190183D01*
X124375400Y-33049906D01*
X124647423Y-32907449D01*
X124668619Y-32895494D01*
X124689048Y-32882525D01*
X124708694Y-32868585D01*
X124727545Y-32853716D01*
X124745585Y-32837961D01*
X124762799Y-32821362D01*
X124779174Y-32803963D01*
X124794695Y-32785805D01*
X124809348Y-32766931D01*
X124823117Y-32747385D01*
X124835989Y-32727208D01*
X124847949Y-32706444D01*
X124858983Y-32685135D01*
X124869076Y-32663323D01*
X124878214Y-32641051D01*
X124886383Y-32618363D01*
X124893567Y-32595300D01*
X124899753Y-32571905D01*
X124904926Y-32548221D01*
X124909071Y-32524290D01*
X124912175Y-32500156D01*
X124914222Y-32475860D01*
X124915198Y-32451446D01*
X124915090Y-32426956D01*
X124913881Y-32402432D01*
X124911559Y-32377918D01*
X124908108Y-32353456D01*
X124903514Y-32329089D01*
X124897763Y-32304858D01*
X124890840Y-32280808D01*
X124882731Y-32256980D01*
X124873421Y-32233417D01*
X124865168Y-32214748D01*
X124856310Y-32196535D01*
X124846858Y-32178787D01*
X124836829Y-32161513D01*
X124826234Y-32144722D01*
X124815088Y-32128423D01*
X124803405Y-32112625D01*
X124791197Y-32097336D01*
X124778480Y-32082567D01*
X124765266Y-32068325D01*
X124751569Y-32054620D01*
X124737402Y-32041460D01*
X124722781Y-32028855D01*
X124707717Y-32016814D01*
X124692226Y-32005345D01*
X124676320Y-31994457D01*
X124660014Y-31984160D01*
X124643320Y-31974463D01*
X124626253Y-31965374D01*
X124608827Y-31956902D01*
X124591054Y-31949056D01*
X124572950Y-31941846D01*
X124554526Y-31935280D01*
X124535798Y-31929366D01*
X124516779Y-31924116D01*
X124497482Y-31919536D01*
X124477922Y-31915636D01*
X124458111Y-31912425D01*
X124438064Y-31909912D01*
X124417794Y-31908106D01*
X124397315Y-31907016D01*
X124376640Y-31906650D01*
X124360220Y-31906885D01*
X124343778Y-31907590D01*
X124327329Y-31908767D01*
X124310884Y-31910419D01*
X124294454Y-31912547D01*
X124278053Y-31915153D01*
X124261692Y-31918240D01*
X124245384Y-31921809D01*
X124138861Y-31945663D01*
X124032176Y-31968339D01*
X123925296Y-31989755D01*
X123818192Y-32009831D01*
X123764297Y-32019359D01*
X123710532Y-32028564D01*
X123656767Y-32037446D01*
X123602875Y-32046005D01*
X123469895Y-32065125D01*
X123285156Y-32085435D01*
X123110012Y-32102031D01*
X122943329Y-32115073D01*
X122783978Y-32124725D01*
X123222112Y-31907367D01*
X123667255Y-31695596D01*
X124118534Y-31489833D01*
X124575077Y-31290498D01*
X124997101Y-31115487D01*
X125255785Y-31012372D01*
X125515244Y-30911710D01*
X125531588Y-30905298D01*
X125547557Y-30898719D01*
X125563163Y-30891965D01*
X125578417Y-30885033D01*
X125593332Y-30877914D01*
X125607920Y-30870604D01*
X125622194Y-30863095D01*
X125636166Y-30855383D01*
X125691831Y-30868919D01*
X125744558Y-30882276D01*
X125795024Y-30895666D01*
X125843907Y-30909299D01*
X125875660Y-30918996D01*
X125916296Y-30932101D01*
X125966206Y-30948573D01*
X126045399Y-30974045D01*
X126076031Y-30984351D01*
X126103661Y-30994220D01*
X126126104Y-31002736D01*
X126148061Y-31011446D01*
X126169695Y-31020284D01*
X126191166Y-31029187D01*
X126235619Y-31047702D01*
X126273160Y-31063617D01*
X126305791Y-31077949D01*
X126335518Y-31091716D01*
X126347957Y-31097641D01*
X126360231Y-31103650D01*
X126384396Y-31115875D01*
X126408237Y-31128293D01*
X126431980Y-31140809D01*
X126459141Y-31155599D01*
X126486239Y-31170759D01*
X126513078Y-31186276D01*
X126539467Y-31202131D01*
X126559938Y-31214829D01*
X126579989Y-31227625D01*
X126599587Y-31240549D01*
X126618702Y-31253635D01*
X126631139Y-31262346D01*
X126643394Y-31271162D01*
X126655479Y-31280074D01*
X126667408Y-31289076D01*
X126679190Y-31298158D01*
X126690840Y-31307313D01*
X126713787Y-31325809D01*
X126776142Y-31378175D01*
X126787500Y-31388797D01*
X126798595Y-31399593D01*
X126809456Y-31410543D01*
X126820111Y-31421625D01*
X126830589Y-31432821D01*
X126840917Y-31444110D01*
X126861237Y-31466885D01*
X126902920Y-31513050D01*
X126916563Y-31530653D01*
X126929831Y-31548459D01*
X126942703Y-31566474D01*
X126955158Y-31584707D01*
X126967178Y-31603167D01*
X126978741Y-31621860D01*
X126989827Y-31640796D01*
X127000416Y-31659982D01*
X127027225Y-31714852D01*
X127050968Y-31773779D01*
X127071304Y-31836904D01*
X127087894Y-31904367D01*
X127100397Y-31976309D01*
X127108471Y-32052870D01*
X127111777Y-32134191D01*
X127109974Y-32220412D01*
X127102721Y-32311673D01*
X127089678Y-32408116D01*
X127070504Y-32509879D01*
X127044859Y-32617104D01*
X127012401Y-32729932D01*
X126972791Y-32848502D01*
X126925688Y-32972954D01*
X126870751Y-33103431D01*
X126807639Y-33240071D01*
X126736013Y-33383015D01*
X126655531Y-33532404D01*
X126565853Y-33688378D01*
X126466638Y-33851078D01*
X126357547Y-34020643D01*
X126238237Y-34197215D01*
X126108369Y-34380933D01*
X125967602Y-34571939D01*
X125815595Y-34770372D01*
X125652009Y-34976374D01*
X125476501Y-35190083D01*
X125288733Y-35411642D01*
X125088362Y-35641190D01*
X124875049Y-35878867D01*
X124648453Y-36124815D01*
X124183148Y-36620426D01*
X123763428Y-37056666D01*
X123379843Y-37437392D01*
X123022943Y-37766460D01*
X122851547Y-37912828D01*
X122683278Y-38047727D01*
X122516956Y-38171640D01*
X122351398Y-38285049D01*
X122185424Y-38388435D01*
X122017852Y-38482281D01*
X121847502Y-38567069D01*
X121673191Y-38643281D01*
X121493739Y-38711399D01*
X121307964Y-38771904D01*
X121114686Y-38825280D01*
X120912722Y-38872008D01*
X120700892Y-38912569D01*
X120478014Y-38947447D01*
X120242907Y-38977123D01*
X119994390Y-39002079D01*
X119452400Y-39039760D01*
X118842594Y-39064345D01*
X118155522Y-39079692D01*
X117381733Y-39089657D01*
X116989594Y-39092908D01*
X116614510Y-39093963D01*
X116614506Y-39093963D01*
X115752044Y-39087505D01*
X114987441Y-39067774D01*
X114313184Y-39034233D01*
X113721761Y-38986347D01*
X113205659Y-38923580D01*
X112757366Y-38845396D01*
X112369369Y-38751259D01*
X112034155Y-38640633D01*
X111744213Y-38512982D01*
X111492030Y-38367770D01*
X111270093Y-38204461D01*
X111070890Y-38022520D01*
X110886908Y-37821409D01*
X110710635Y-37600595D01*
X110351166Y-37097707D01*
X110085568Y-36719310D01*
X109937737Y-36514977D01*
X109777709Y-36300880D01*
X109603850Y-36077263D01*
X109414526Y-35844371D01*
X109208104Y-35602448D01*
X109097972Y-35478176D01*
X108982952Y-35351738D01*
X108928545Y-35295193D01*
X108871976Y-35241350D01*
X108813348Y-35190259D01*
X108752763Y-35141975D01*
X108690323Y-35096549D01*
X108626133Y-35054034D01*
X108560293Y-35014482D01*
X108492908Y-34977946D01*
X108424080Y-34944478D01*
X108353911Y-34914131D01*
X108282504Y-34886957D01*
X108209962Y-34863009D01*
X108136387Y-34842339D01*
X108061883Y-34825000D01*
X107986552Y-34811044D01*
X107910496Y-34800523D01*
X107449436Y-34752166D01*
X107010738Y-34714803D01*
X106593376Y-34687029D01*
X106196328Y-34667436D01*
X105818569Y-34654617D01*
X105459078Y-34647166D01*
X104790798Y-34642739D01*
X104122642Y-34647166D01*
X103763202Y-34654617D01*
X103385483Y-34667436D01*
X102988458Y-34687029D01*
X102571099Y-34714803D01*
X102132380Y-34752166D01*
X101671272Y-34800523D01*
X101595277Y-34811014D01*
X101519998Y-34824943D01*
X101445538Y-34842260D01*
X101372001Y-34862912D01*
X101299490Y-34886846D01*
X101228107Y-34914010D01*
X101157955Y-34944351D01*
X101089138Y-34977817D01*
X101021758Y-35014355D01*
X100955918Y-35053913D01*
X100891721Y-35096438D01*
X100829270Y-35141878D01*
X100768669Y-35190181D01*
X100710019Y-35241293D01*
X100653424Y-35295163D01*
X100598988Y-35351738D01*
X100373897Y-35602384D01*
X100167553Y-35844213D01*
X99978354Y-36076934D01*
X99804701Y-36300256D01*
X99644993Y-36513889D01*
X99497628Y-36717542D01*
X99233526Y-37093746D01*
X99049705Y-37356218D01*
X98873240Y-37597842D01*
X98696603Y-37819157D01*
X98605869Y-37922367D01*
X98512270Y-38020703D01*
X98414866Y-38114232D01*
X98312715Y-38203021D01*
X98204878Y-38287139D01*
X98090412Y-38366651D01*
X97968378Y-38441627D01*
X97837835Y-38512134D01*
X97697842Y-38578238D01*
X97547458Y-38640009D01*
X97385742Y-38697512D01*
X97211755Y-38750816D01*
X97024554Y-38799988D01*
X96823200Y-38845097D01*
X96606752Y-38886208D01*
X96374268Y-38923390D01*
X96124809Y-38956711D01*
X95857433Y-38986237D01*
X95571200Y-39012037D01*
X95265169Y-39034178D01*
X94938398Y-39052727D01*
X94589949Y-39067752D01*
X93824248Y-39087501D01*
X92960541Y-39093963D01*
X92588536Y-39092908D01*
X92199865Y-39089657D01*
X90739069Y-39064345D01*
X90129295Y-39039759D01*
X89587336Y-39002078D01*
X89103741Y-38947446D01*
X88669062Y-38872007D01*
X88273846Y-38771904D01*
X87908645Y-38643280D01*
X87734346Y-38567069D01*
X87564007Y-38482281D01*
X87230482Y-38285048D01*
X86898620Y-38047727D01*
X86558971Y-37766460D01*
X86202083Y-37437392D01*
X85818507Y-37056666D01*
X84933490Y-36124815D01*
X84493555Y-35641188D01*
X84105400Y-35190075D01*
X83766299Y-34770355D01*
X83473527Y-34380904D01*
X83224356Y-34020598D01*
X83016061Y-33688314D01*
X82845915Y-33382931D01*
X82711194Y-33103323D01*
X82609169Y-32848369D01*
X82537116Y-32616944D01*
X82492307Y-32407927D01*
X82472018Y-32220194D01*
X82473522Y-32052622D01*
X82494092Y-31904087D01*
X82531003Y-31773467D01*
X82581529Y-31659638D01*
X82617769Y-31597469D01*
X82659146Y-31537248D01*
X82705652Y-31478977D01*
X82757283Y-31422656D01*
X82814030Y-31368288D01*
X82875888Y-31315874D01*
X82942851Y-31265417D01*
X83014913Y-31216917D01*
X83092067Y-31170377D01*
X83174306Y-31125799D01*
X83261626Y-31083183D01*
X83354018Y-31042532D01*
X83451478Y-31003847D01*
X83553998Y-30967131D01*
X83661573Y-30932384D01*
X83774197Y-30899609D01*
X84014563Y-30839979D01*
X84275047Y-30788256D01*
X84555598Y-30744454D01*
X84856166Y-30708584D01*
X85176702Y-30680662D01*
X85517154Y-30660701D01*
X85877473Y-30648714D01*
X86257609Y-30644716D01*
X87431140Y-30674943D01*
G37*
M02*
