%TF.GenerationSoftware,KiCad,Pcbnew,10.0.2*%
%TF.CreationDate,2026-07-10T17:43:20+02:00*%
%TF.ProjectId,cover,636f7665-722e-46b6-9963-61645f706362,1.0*%
%TF.SameCoordinates,Original*%
%TF.FileFunction,Copper,L1,Top*%
%TF.FilePolarity,Positive*%
%FSLAX46Y46*%
G04 Gerber Fmt 4.6, Leading zero omitted, Abs format (unit mm)*
G04 Created by KiCad (PCBNEW 10.0.2) date 2026-07-10 17:43:20*
%MOMM*%
%LPD*%
G01*
G04 APERTURE LIST*
%TA.AperFunction,NonConductor*%
%ADD10C,0.000000*%
%TD*%
G04 APERTURE END LIST*
D10*
%TA.AperFunction,NonConductor*%
G36*
X127350385Y-36109685D02*
G01*
X128527264Y-36480480D01*
X129626509Y-36853548D01*
X130649350Y-37229591D01*
X131597021Y-37609314D01*
X132470753Y-37993421D01*
X133271778Y-38382616D01*
X134001328Y-38777603D01*
X134660634Y-39179085D01*
X135250929Y-39587768D01*
X135773445Y-40004354D01*
X136229412Y-40429548D01*
X136620064Y-40864054D01*
X136946632Y-41308576D01*
X137210347Y-41763817D01*
X137412442Y-42230482D01*
X137446165Y-42327120D01*
X137477443Y-42424490D01*
X137506278Y-42522620D01*
X137532670Y-42621538D01*
X137556622Y-42721268D01*
X137578135Y-42821839D01*
X137597210Y-42923277D01*
X137613850Y-43025609D01*
X137628055Y-43128861D01*
X137639827Y-43233060D01*
X137649167Y-43338233D01*
X137656078Y-43444407D01*
X137660560Y-43551608D01*
X137662616Y-43659864D01*
X137662246Y-43769200D01*
X137659452Y-43879645D01*
X137659452Y-43879647D01*
X137477092Y-43543833D01*
X137272146Y-43216014D01*
X137045541Y-42896115D01*
X136798203Y-42584064D01*
X136531059Y-42279784D01*
X136245037Y-41983202D01*
X135941062Y-41694243D01*
X135620062Y-41412833D01*
X134930691Y-40872363D01*
X134184338Y-40361196D01*
X133388418Y-39878739D01*
X132550344Y-39424396D01*
X131677529Y-38997573D01*
X130777388Y-38597675D01*
X129857335Y-38224107D01*
X128924783Y-37876274D01*
X127987146Y-37553582D01*
X127051839Y-37255436D01*
X126126274Y-36981241D01*
X125217866Y-36730403D01*
X125255071Y-36690612D01*
X125474911Y-36452016D01*
X125687258Y-36215083D01*
X125893403Y-35978376D01*
X126094640Y-35740458D01*
X127350385Y-36109685D01*
G37*
%TD.AperFunction*%
%TA.AperFunction,NonConductor*%
G36*
X83689184Y-35978352D02*
G01*
X83895536Y-36215234D01*
X84107864Y-36452180D01*
X84327443Y-36690612D01*
X84364477Y-36730059D01*
X82530575Y-37255105D01*
X81595305Y-37553266D01*
X80657707Y-37875975D01*
X79725192Y-38223826D01*
X78805174Y-38597412D01*
X77905065Y-38997325D01*
X77032278Y-39424159D01*
X76194225Y-39878507D01*
X75398318Y-40360961D01*
X74651971Y-40872115D01*
X73962595Y-41412562D01*
X73337604Y-41982894D01*
X72784410Y-42583704D01*
X72537054Y-42895724D01*
X72310426Y-43215585D01*
X72105454Y-43543363D01*
X71923064Y-43879132D01*
X71920299Y-43768689D01*
X71919950Y-43659357D01*
X71922020Y-43551109D01*
X71926512Y-43443917D01*
X71933426Y-43337753D01*
X71942766Y-43232591D01*
X71954534Y-43128401D01*
X71968733Y-43025158D01*
X71985363Y-42922833D01*
X72004429Y-42821400D01*
X72025931Y-42720829D01*
X72049873Y-42621095D01*
X72076256Y-42522169D01*
X72105082Y-42424024D01*
X72136355Y-42326633D01*
X72170076Y-42229967D01*
X72263497Y-41995163D01*
X72372169Y-41763302D01*
X72496244Y-41534297D01*
X72635877Y-41308061D01*
X72791223Y-41084504D01*
X72962435Y-40863540D01*
X73149667Y-40645079D01*
X73353074Y-40429035D01*
X73572808Y-40215319D01*
X73809025Y-40003843D01*
X74061878Y-39794520D01*
X74331522Y-39587261D01*
X74618109Y-39381978D01*
X74921795Y-39178584D01*
X75242734Y-38976990D01*
X75581078Y-38777108D01*
X75936983Y-38578851D01*
X76310603Y-38382130D01*
X76702091Y-38186858D01*
X77111601Y-37992947D01*
X77985305Y-37608854D01*
X78932946Y-37229147D01*
X79955757Y-36853124D01*
X81054970Y-36480080D01*
X82231817Y-36109311D01*
X83487531Y-35740114D01*
X83689184Y-35978352D01*
G37*
%TD.AperFunction*%
%TA.AperFunction,NonConductor*%
G36*
X101705129Y-42775672D02*
G01*
X101716516Y-42776354D01*
X101724981Y-42777165D01*
X101733478Y-42778205D01*
X101742006Y-42779466D01*
X101750564Y-42780944D01*
X101759150Y-42782630D01*
X101767765Y-42784519D01*
X101785075Y-42788878D01*
X101802486Y-42793968D01*
X101819993Y-42799739D01*
X101837589Y-42806136D01*
X101855266Y-42813109D01*
X101860779Y-42815285D01*
X101866285Y-42817407D01*
X101871798Y-42819597D01*
X101874563Y-42820757D01*
X101877336Y-42821980D01*
X101895210Y-42830454D01*
X101913179Y-42839609D01*
X101931245Y-42849459D01*
X101949409Y-42860019D01*
X101967673Y-42871301D01*
X101986039Y-42883322D01*
X102004509Y-42896096D01*
X102023084Y-42909636D01*
X102024606Y-42910781D01*
X102026136Y-42911964D01*
X102029209Y-42914400D01*
X102032282Y-42916860D01*
X102035335Y-42919260D01*
X102055393Y-42935068D01*
X102075560Y-42951673D01*
X102116222Y-42987283D01*
X102157321Y-43026109D01*
X102198860Y-43068171D01*
X102240839Y-43113489D01*
X102283262Y-43162082D01*
X102326129Y-43213971D01*
X102369443Y-43269175D01*
X102410499Y-43323989D01*
X102451936Y-43381671D01*
X102493754Y-43442224D01*
X102535954Y-43505651D01*
X102578536Y-43571953D01*
X102621499Y-43641133D01*
X102664844Y-43713192D01*
X102708570Y-43788134D01*
X103732519Y-43763163D01*
X104788671Y-43747525D01*
X105979997Y-43765520D01*
X107130331Y-43795376D01*
X108240387Y-43836603D01*
X109310876Y-43888710D01*
X110342513Y-43951209D01*
X111336009Y-44023611D01*
X112292077Y-44105425D01*
X113211431Y-44196162D01*
X113264687Y-44118603D01*
X113316366Y-44045876D01*
X113366508Y-43977801D01*
X113415154Y-43914200D01*
X113462342Y-43854893D01*
X113508112Y-43799702D01*
X113552505Y-43748448D01*
X113595559Y-43700953D01*
X113617544Y-43677566D01*
X113639158Y-43655186D01*
X113660402Y-43633795D01*
X113681280Y-43613376D01*
X113701794Y-43593912D01*
X113721945Y-43575384D01*
X113741738Y-43557776D01*
X113761173Y-43541070D01*
X113780253Y-43525249D01*
X113798981Y-43510294D01*
X113817359Y-43496188D01*
X113835390Y-43482915D01*
X113853075Y-43470456D01*
X113870418Y-43458794D01*
X113887420Y-43447911D01*
X113904084Y-43437790D01*
X113904659Y-43437475D01*
X113904949Y-43437314D01*
X113905248Y-43437144D01*
X113921327Y-43427946D01*
X113937076Y-43419461D01*
X113952498Y-43411670D01*
X113967598Y-43404556D01*
X113982380Y-43398099D01*
X113996848Y-43392283D01*
X114011007Y-43387088D01*
X114024861Y-43382496D01*
X114025356Y-43382353D01*
X114025842Y-43382226D01*
X114026321Y-43382111D01*
X114026796Y-43382003D01*
X114027746Y-43381784D01*
X114028227Y-43381663D01*
X114028714Y-43381527D01*
X114042020Y-43377716D01*
X114055047Y-43374431D01*
X114067791Y-43371667D01*
X114080247Y-43369419D01*
X114092409Y-43367681D01*
X114104275Y-43366446D01*
X114115838Y-43365710D01*
X114127095Y-43365465D01*
X114128819Y-43365465D01*
X114137483Y-43365668D01*
X114146155Y-43366174D01*
X114154834Y-43366979D01*
X114163521Y-43368074D01*
X114172216Y-43369455D01*
X114180919Y-43371115D01*
X114189629Y-43373047D01*
X114198347Y-43375246D01*
X114207072Y-43377704D01*
X114215804Y-43380416D01*
X114224543Y-43383375D01*
X114233290Y-43386576D01*
X114242044Y-43390011D01*
X114250804Y-43393674D01*
X114259572Y-43397560D01*
X114268346Y-43401661D01*
X114273859Y-43404459D01*
X114279379Y-43407465D01*
X114284904Y-43410662D01*
X114290435Y-43414034D01*
X114301510Y-43421237D01*
X114312600Y-43428944D01*
X114323701Y-43437024D01*
X114334809Y-43445345D01*
X114357034Y-43462187D01*
X114363214Y-43466628D01*
X114369388Y-43470839D01*
X114381733Y-43479019D01*
X114387911Y-43483213D01*
X114394098Y-43487626D01*
X114397196Y-43489951D01*
X114400298Y-43492372D01*
X114403404Y-43494905D01*
X114406514Y-43497563D01*
X114421739Y-43511424D01*
X114436990Y-43525982D01*
X114452265Y-43541198D01*
X114467563Y-43557034D01*
X114482883Y-43573451D01*
X114498224Y-43590411D01*
X114513586Y-43607876D01*
X114528966Y-43625807D01*
X114530853Y-43627964D01*
X114532736Y-43630030D01*
X114536495Y-43634023D01*
X114538375Y-43636014D01*
X114540258Y-43638047D01*
X114542145Y-43640154D01*
X114544038Y-43642367D01*
X114561274Y-43663559D01*
X114578536Y-43685371D01*
X114595824Y-43707795D01*
X114613139Y-43730827D01*
X114630479Y-43754459D01*
X114647846Y-43778685D01*
X114665240Y-43803500D01*
X114682660Y-43828896D01*
X114725109Y-43892776D01*
X114767710Y-43959532D01*
X114810468Y-44029060D01*
X114853386Y-44101253D01*
X114896470Y-44176007D01*
X114939724Y-44253217D01*
X114983153Y-44332777D01*
X115026761Y-44414582D01*
X116051353Y-44562563D01*
X117021517Y-44721528D01*
X117938683Y-44890481D01*
X118804284Y-45068427D01*
X119619750Y-45254371D01*
X120386511Y-45447317D01*
X121105999Y-45646270D01*
X121779645Y-45850235D01*
X121890793Y-45812872D01*
X122004794Y-45776896D01*
X122121630Y-45742332D01*
X122241283Y-45709210D01*
X122363736Y-45677556D01*
X122488971Y-45647398D01*
X122616970Y-45618764D01*
X122747716Y-45591681D01*
X122750428Y-45592587D01*
X122895462Y-45564907D01*
X123043194Y-45538934D01*
X123193446Y-45514617D01*
X123346040Y-45491904D01*
X123365308Y-45489254D01*
X123922445Y-45422496D01*
X124501632Y-45375262D01*
X125097017Y-45346851D01*
X125702748Y-45336561D01*
X126312973Y-45343690D01*
X126921838Y-45367538D01*
X127523491Y-45407401D01*
X128112081Y-45462578D01*
X128104492Y-45693278D01*
X128085073Y-45965604D01*
X128049886Y-46282241D01*
X127994990Y-46645873D01*
X127916447Y-47059184D01*
X127810318Y-47524861D01*
X127672663Y-48045587D01*
X127499543Y-48624047D01*
X127479638Y-48686223D01*
X127459662Y-48747348D01*
X127419622Y-48868260D01*
X127484740Y-48937592D01*
X127545110Y-49004285D01*
X127600878Y-49068235D01*
X127652190Y-49129344D01*
X127699192Y-49187509D01*
X127742031Y-49242631D01*
X127780853Y-49294607D01*
X127815805Y-49343338D01*
X127863318Y-49207560D01*
X127910543Y-49069341D01*
X127957424Y-48928176D01*
X128003907Y-48783554D01*
X128124791Y-48387302D01*
X128229668Y-48015994D01*
X128319642Y-47668939D01*
X128395816Y-47345449D01*
X128459293Y-47044835D01*
X128511176Y-46766408D01*
X128552569Y-46509478D01*
X128584574Y-46273357D01*
X128608295Y-46057355D01*
X128624835Y-45860784D01*
X128635296Y-45682953D01*
X128640783Y-45523175D01*
X128641245Y-45255019D01*
X128635045Y-45050803D01*
X128633065Y-44994152D01*
X128632236Y-44966288D01*
X128631600Y-44939699D01*
X128727417Y-44932262D01*
X128849375Y-44934316D01*
X128996122Y-44946849D01*
X129166307Y-44970852D01*
X129358577Y-45007313D01*
X129571580Y-45057221D01*
X129803966Y-45121564D01*
X130054380Y-45201331D01*
X130321473Y-45297512D01*
X130603891Y-45411095D01*
X130900284Y-45543068D01*
X131209298Y-45694422D01*
X131529582Y-45866145D01*
X131859784Y-46059225D01*
X132198552Y-46274651D01*
X132544534Y-46513413D01*
X132606905Y-46558608D01*
X132672052Y-46606512D01*
X132739484Y-46656700D01*
X132808709Y-46708750D01*
X132842710Y-46734602D01*
X132877179Y-46760987D01*
X132943634Y-46812095D01*
X133011604Y-46864977D01*
X133081130Y-46919736D01*
X133152249Y-46976477D01*
X133186891Y-47004036D01*
X133273607Y-47074628D01*
X133362133Y-47147767D01*
X133452378Y-47223482D01*
X133544255Y-47301800D01*
X133560681Y-47316139D01*
X133651031Y-47394636D01*
X133742683Y-47475562D01*
X133835505Y-47558846D01*
X133929368Y-47644415D01*
X133957318Y-47670018D01*
X134057469Y-47763320D01*
X134158538Y-47859191D01*
X134260413Y-47957625D01*
X134362981Y-48058614D01*
X134466131Y-48162152D01*
X134569752Y-48268231D01*
X134673732Y-48376846D01*
X134777959Y-48487988D01*
X134786325Y-48497034D01*
X134794671Y-48506096D01*
X134900291Y-48621515D01*
X135005894Y-48739457D01*
X135111359Y-48859923D01*
X135216564Y-48982909D01*
X135321390Y-49108416D01*
X135425717Y-49236442D01*
X135529422Y-49366986D01*
X135632386Y-49500046D01*
X135713525Y-49607553D01*
X135793988Y-49716670D01*
X135873739Y-49827375D01*
X135952741Y-49939647D01*
X136030957Y-50053464D01*
X136108348Y-50168805D01*
X136184878Y-50285648D01*
X136260511Y-50403973D01*
X136335086Y-50523778D01*
X136408523Y-50645155D01*
X136480812Y-50768041D01*
X136551946Y-50892376D01*
X136563466Y-50912687D01*
X136574941Y-50933029D01*
X136627152Y-51027570D01*
X136678601Y-51122958D01*
X136729266Y-51219189D01*
X136779127Y-51316258D01*
X136828163Y-51414161D01*
X136876353Y-51512893D01*
X136923677Y-51612449D01*
X136970113Y-51712826D01*
X136985902Y-51747888D01*
X137001472Y-51783130D01*
X137032384Y-51853838D01*
X137072633Y-51946910D01*
X137112076Y-52040648D01*
X137150688Y-52135064D01*
X137188443Y-52230171D01*
X137206954Y-52277963D01*
X137225245Y-52325928D01*
X137243314Y-52374063D01*
X137261159Y-52422364D01*
X137288060Y-52496597D01*
X137314408Y-52571216D01*
X137340207Y-52646227D01*
X137365460Y-52721634D01*
X137387630Y-52789530D01*
X137409395Y-52857693D01*
X137430693Y-52926163D01*
X137451459Y-52994980D01*
X137481614Y-53098004D01*
X137496316Y-53149754D01*
X137510694Y-53201706D01*
X137536064Y-53296824D01*
X137560555Y-53392481D01*
X137584099Y-53488707D01*
X137606633Y-53585533D01*
X137616845Y-53631727D01*
X137626684Y-53678138D01*
X137645848Y-53771244D01*
X137664151Y-53862681D01*
X137681647Y-53954567D01*
X137698254Y-54046936D01*
X137713887Y-54139826D01*
X137721214Y-54186012D01*
X137728256Y-54232340D01*
X137741727Y-54325323D01*
X137754761Y-54421795D01*
X137766781Y-54518773D01*
X137777792Y-54616247D01*
X137787801Y-54714209D01*
X137795332Y-54789306D01*
X137798968Y-54826919D01*
X137802251Y-54864693D01*
X137810772Y-54982728D01*
X137817641Y-55101508D01*
X137822968Y-55220978D01*
X137826863Y-55341084D01*
X137826863Y-55341086D01*
X137828544Y-55417139D01*
X137829595Y-55493468D01*
X137830106Y-55618516D01*
X137829072Y-55744210D01*
X137826282Y-55870623D01*
X137821523Y-55997828D01*
X137819939Y-56027726D01*
X137818044Y-56057743D01*
X137814176Y-56117804D01*
X137806095Y-56243113D01*
X137796379Y-56369055D01*
X137784883Y-56495671D01*
X137771459Y-56623003D01*
X137769598Y-56640917D01*
X137767914Y-56658762D01*
X137766194Y-56676615D01*
X137764226Y-56694552D01*
X137746006Y-56834574D01*
X137725242Y-56975509D01*
X137702237Y-57117235D01*
X137677297Y-57259630D01*
X137666341Y-57320925D01*
X137660764Y-57351605D01*
X137654950Y-57382365D01*
X137626469Y-57523827D01*
X137595675Y-57666055D01*
X137562576Y-57809043D01*
X137527181Y-57952784D01*
X137519406Y-57982959D01*
X137511427Y-58013197D01*
X137495267Y-58073725D01*
X137454473Y-58223477D01*
X137411439Y-58373920D01*
X137365813Y-58525155D01*
X137317243Y-58677283D01*
X137311835Y-58693261D01*
X137306200Y-58709306D01*
X137300533Y-58725360D01*
X137295026Y-58741362D01*
X137243802Y-58890512D01*
X137189937Y-59040426D01*
X137133488Y-59191083D01*
X137074514Y-59342463D01*
X137066339Y-59363400D01*
X137058333Y-59384296D01*
X137050279Y-59405204D01*
X137041959Y-59426180D01*
X136977042Y-59582691D01*
X136909025Y-59740051D01*
X136838155Y-59898178D01*
X136764676Y-60056994D01*
X136735887Y-60118152D01*
X136706662Y-60179423D01*
X136628852Y-60338464D01*
X136548222Y-60498221D01*
X136464631Y-60658722D01*
X136377942Y-60819994D01*
X136363085Y-60846855D01*
X136347946Y-60873794D01*
X136317624Y-60927695D01*
X136221690Y-61098016D01*
X136122885Y-61269026D01*
X136020670Y-61440838D01*
X135914510Y-61613570D01*
X135887467Y-61656098D01*
X135860035Y-61697971D01*
X135804310Y-61780268D01*
X135691590Y-61942702D01*
X135691613Y-61942702D01*
X135648805Y-62004269D01*
X135605649Y-62065224D01*
X135562144Y-62125573D01*
X135518292Y-62185318D01*
X135474093Y-62244463D01*
X135429547Y-62303013D01*
X135384655Y-62360971D01*
X135339417Y-62418341D01*
X135240355Y-62540496D01*
X135139739Y-62659904D01*
X135037597Y-62776587D01*
X134933952Y-62890564D01*
X134828829Y-63001857D01*
X134722254Y-63110487D01*
X134614252Y-63216475D01*
X134504847Y-63319841D01*
X134394065Y-63420607D01*
X134281930Y-63518793D01*
X134168468Y-63614420D01*
X134053703Y-63707510D01*
X133937661Y-63798082D01*
X133820367Y-63886159D01*
X133701845Y-63971760D01*
X133582120Y-64054907D01*
X133570149Y-64063067D01*
X133331078Y-64218940D01*
X133087608Y-64365459D01*
X132839936Y-64502804D01*
X132588258Y-64631152D01*
X132332770Y-64750683D01*
X132073668Y-64861575D01*
X131811149Y-64964007D01*
X131545407Y-65058157D01*
X131508102Y-65070650D01*
X131470735Y-65082983D01*
X131292468Y-65139422D01*
X131112971Y-65192426D01*
X130932285Y-65242003D01*
X130750452Y-65288163D01*
X130567513Y-65330918D01*
X130383509Y-65370276D01*
X130198481Y-65406247D01*
X130012471Y-65438841D01*
X129832640Y-65466885D01*
X129652020Y-65491753D01*
X129470689Y-65513732D01*
X129288724Y-65533106D01*
X128584276Y-66473013D01*
X127891287Y-67377204D01*
X127209877Y-68245544D01*
X126540167Y-69077894D01*
X125882278Y-69874120D01*
X125236329Y-70634084D01*
X124602442Y-71357651D01*
X123980736Y-72044684D01*
X123371332Y-72695047D01*
X122774351Y-73308603D01*
X122189913Y-73885217D01*
X121618138Y-74424751D01*
X121059148Y-74927069D01*
X120513061Y-75392036D01*
X119980000Y-75819514D01*
X119460084Y-76209368D01*
X118524929Y-76868241D01*
X117660940Y-77440213D01*
X116860169Y-77929224D01*
X116114669Y-78339214D01*
X115760161Y-78515808D01*
X115416491Y-78674124D01*
X115082665Y-78814654D01*
X114757689Y-78937892D01*
X114440571Y-79044329D01*
X114130315Y-79134459D01*
X113825930Y-79208774D01*
X113526422Y-79267766D01*
X113230797Y-79311928D01*
X112938062Y-79341752D01*
X112647223Y-79357730D01*
X112357287Y-79360357D01*
X112067261Y-79350123D01*
X111776151Y-79327521D01*
X111186705Y-79247185D01*
X110581002Y-79123288D01*
X109951095Y-78959771D01*
X109289035Y-78760573D01*
X108586877Y-78529635D01*
X108207998Y-78414894D01*
X107797081Y-78315423D01*
X107358277Y-78231222D01*
X106895737Y-78162293D01*
X106413613Y-78108637D01*
X105916055Y-78070254D01*
X105407216Y-78047147D01*
X104891245Y-78039315D01*
X104372296Y-78046759D01*
X103854518Y-78069482D01*
X103342063Y-78107483D01*
X102839083Y-78160764D01*
X102349728Y-78229327D01*
X101878150Y-78313171D01*
X101428500Y-78412298D01*
X101004930Y-78526709D01*
X100723466Y-78610941D01*
X99439223Y-78984485D01*
X98854321Y-79133699D01*
X98294922Y-79250768D01*
X97751545Y-79330359D01*
X97214708Y-79367141D01*
X96674928Y-79355784D01*
X96122725Y-79290956D01*
X95548616Y-79167326D01*
X94943119Y-78979564D01*
X94296752Y-78722336D01*
X93600033Y-78390314D01*
X92843481Y-77978165D01*
X92017614Y-77480558D01*
X91112949Y-76892163D01*
X90120006Y-76207648D01*
X89582867Y-75814462D01*
X89052078Y-75398625D01*
X88527486Y-74961404D01*
X88008939Y-74504069D01*
X87496283Y-74027888D01*
X86989367Y-73534132D01*
X86488037Y-73024068D01*
X85992141Y-72498966D01*
X85016039Y-71408723D01*
X84059842Y-70273556D01*
X83122326Y-69103618D01*
X82202271Y-67909060D01*
X82014443Y-67884470D01*
X81827273Y-67857464D01*
X81640733Y-67828129D01*
X81454795Y-67796553D01*
X81166646Y-67742749D01*
X80880405Y-67683002D01*
X80596210Y-67617231D01*
X80314202Y-67545353D01*
X80034519Y-67467286D01*
X79757301Y-67382948D01*
X79482687Y-67292256D01*
X79210816Y-67195128D01*
X79161228Y-67177149D01*
X79041309Y-67131087D01*
X78922061Y-67083535D01*
X78803424Y-67034650D01*
X78685333Y-66984591D01*
X78636345Y-66963503D01*
X78587471Y-66942171D01*
X78472942Y-66890945D01*
X78359018Y-66838470D01*
X78245741Y-66784679D01*
X78133150Y-66729502D01*
X78111776Y-66718711D01*
X78090479Y-66707756D01*
X78047905Y-66685816D01*
X77799481Y-66555052D01*
X77554576Y-66417515D01*
X77313335Y-66273098D01*
X77075901Y-66121691D01*
X76842418Y-65963185D01*
X76613028Y-65797472D01*
X76387876Y-65624444D01*
X76167103Y-65443991D01*
X76137196Y-65419531D01*
X76088495Y-65377756D01*
X76040095Y-65335492D01*
X75944109Y-65249642D01*
X75849060Y-65162270D01*
X75754770Y-65073664D01*
X75709967Y-65031338D01*
X75687617Y-65010090D01*
X75665391Y-64988657D01*
X75576300Y-64900727D01*
X75488144Y-64811324D01*
X75400913Y-64720473D01*
X75314595Y-64628195D01*
X75292405Y-64603956D01*
X75270334Y-64579520D01*
X75226315Y-64530440D01*
X75139879Y-64433252D01*
X75054289Y-64334779D01*
X74969721Y-64234751D01*
X74927874Y-64184069D01*
X74886349Y-64132899D01*
X74880454Y-64125481D01*
X74874612Y-64117985D01*
X74863022Y-64102853D01*
X74851453Y-64087688D01*
X74839776Y-64072676D01*
X74700462Y-63892473D01*
X74564226Y-63707698D01*
X74431153Y-63518275D01*
X74301325Y-63324129D01*
X74174826Y-63125183D01*
X74051739Y-62921362D01*
X73932147Y-62712589D01*
X73816133Y-62498789D01*
X73806867Y-62481615D01*
X73797413Y-62464701D01*
X73778224Y-62431264D01*
X73759127Y-62397698D01*
X73749789Y-62380624D01*
X73740685Y-62363226D01*
X73718506Y-62318939D01*
X73697126Y-62274913D01*
X73655918Y-62187371D01*
X73615376Y-62100046D01*
X73573814Y-62012385D01*
X73360402Y-61556349D01*
X73164581Y-61106242D01*
X72985960Y-60662062D01*
X72824151Y-60223809D01*
X72549409Y-59365077D01*
X72337236Y-58530036D01*
X72184515Y-57718678D01*
X72088129Y-56930993D01*
X72044961Y-56166972D01*
X72051893Y-55426606D01*
X72105808Y-54709885D01*
X72203589Y-54016801D01*
X72342119Y-53347344D01*
X72518279Y-52701506D01*
X72728954Y-52079276D01*
X72971025Y-51480646D01*
X73241375Y-50905607D01*
X73536887Y-50354149D01*
X73529093Y-50356110D01*
X73643489Y-50159118D01*
X73760586Y-49965275D01*
X73880372Y-49774629D01*
X74002835Y-49587231D01*
X74003998Y-49589190D01*
X74145454Y-49380804D01*
X74289734Y-49176534D01*
X74436612Y-48976378D01*
X74585864Y-48780334D01*
X74737266Y-48588399D01*
X74890594Y-48400573D01*
X75045622Y-48216853D01*
X75202126Y-48037236D01*
X75359882Y-47861723D01*
X75518666Y-47690310D01*
X75838417Y-47359777D01*
X76159583Y-47045623D01*
X76480369Y-46747834D01*
X76518373Y-46713232D01*
X76597168Y-46642853D01*
X76675754Y-46573607D01*
X76754138Y-46505357D01*
X76832327Y-46437969D01*
X76867319Y-46407913D01*
X76902263Y-46378048D01*
X76974262Y-46317293D01*
X77045982Y-46257459D01*
X77117420Y-46198481D01*
X77188571Y-46140293D01*
X77234410Y-46103081D01*
X77280103Y-46066225D01*
X77345766Y-46013717D01*
X77411100Y-45961946D01*
X77476090Y-45910917D01*
X77540723Y-45860640D01*
X77595944Y-45818160D01*
X77650858Y-45776213D01*
X77768998Y-45686758D01*
X77827530Y-45642954D01*
X77885619Y-45599890D01*
X77947989Y-45554281D01*
X78009858Y-45509434D01*
X78115460Y-45433209D01*
X78167727Y-45395842D01*
X78219448Y-45359228D01*
X78287434Y-45311845D01*
X78354646Y-45265478D01*
X78446622Y-45202045D01*
X78492128Y-45170886D01*
X78536999Y-45140486D01*
X78575068Y-45115038D01*
X78612548Y-45090219D01*
X78686774Y-45041374D01*
X78762254Y-44991563D01*
X78799642Y-44967005D01*
X78836312Y-44943188D01*
X78880351Y-44915003D01*
X78923459Y-44887690D01*
X79008265Y-44834387D01*
X79061163Y-44800938D01*
X79087499Y-44784312D01*
X79113125Y-44768328D01*
X79242854Y-44688923D01*
X79305136Y-44651359D01*
X79365477Y-44615347D01*
X79749310Y-44395570D01*
X80122289Y-44197295D01*
X80483805Y-44019510D01*
X80833251Y-43861206D01*
X81170017Y-43721372D01*
X81493497Y-43598998D01*
X81803082Y-43493074D01*
X82098163Y-43402589D01*
X82378133Y-43326533D01*
X82642384Y-43263896D01*
X82890307Y-43213667D01*
X83121294Y-43174836D01*
X83334738Y-43146393D01*
X83530030Y-43127327D01*
X83706563Y-43116629D01*
X83863727Y-43113287D01*
X83934680Y-43114057D01*
X84000597Y-43116283D01*
X84061398Y-43119837D01*
X84117006Y-43124592D01*
X84167341Y-43130421D01*
X84212324Y-43137196D01*
X84251878Y-43144791D01*
X84269593Y-43148856D01*
X84285922Y-43153078D01*
X84282019Y-43193050D01*
X84277051Y-43237203D01*
X84265595Y-43329983D01*
X84253081Y-43431970D01*
X84239747Y-43549567D01*
X84226494Y-43683059D01*
X84214221Y-43832730D01*
X84214200Y-43832922D01*
X84199801Y-44090498D01*
X84193246Y-44389890D01*
X84197713Y-44733480D01*
X84216377Y-45123649D01*
X84252414Y-45562778D01*
X84309001Y-46053249D01*
X84389312Y-46597442D01*
X84496525Y-47197739D01*
X84614576Y-47135939D01*
X84735700Y-47073965D01*
X84859892Y-47011833D01*
X84987148Y-46949562D01*
X84935462Y-46660479D01*
X84890451Y-46385283D01*
X84851731Y-46123667D01*
X84818919Y-45875323D01*
X84791631Y-45639943D01*
X84769482Y-45417221D01*
X84752088Y-45206848D01*
X84739067Y-45008517D01*
X84730032Y-44821920D01*
X84724602Y-44646751D01*
X84723014Y-44329462D01*
X84731233Y-44054190D01*
X84746185Y-43818474D01*
X85531074Y-43813187D01*
X86333001Y-43832137D01*
X87142400Y-43875632D01*
X87949707Y-43943977D01*
X88745359Y-44037480D01*
X89519792Y-44156449D01*
X90263441Y-44301188D01*
X90620733Y-44383318D01*
X90966743Y-44472006D01*
X91107895Y-44511130D01*
X91246658Y-44551405D01*
X91382970Y-44592834D01*
X91516772Y-44635417D01*
X91648001Y-44679158D01*
X91776599Y-44724057D01*
X91902504Y-44770115D01*
X92025655Y-44817335D01*
X92913466Y-44661003D01*
X93849318Y-44513997D01*
X94834432Y-44377159D01*
X95870026Y-44251333D01*
X96957321Y-44137363D01*
X98097537Y-44036092D01*
X99291892Y-43948362D01*
X100541608Y-43875017D01*
X100591697Y-43799482D01*
X100641545Y-43725616D01*
X100691143Y-43653544D01*
X100740483Y-43583394D01*
X100789555Y-43515291D01*
X100838351Y-43449363D01*
X100886862Y-43385736D01*
X100935079Y-43324536D01*
X100961002Y-43292522D01*
X100986836Y-43261277D01*
X101012581Y-43230812D01*
X101038238Y-43201136D01*
X101041038Y-43198035D01*
X101065802Y-43170119D01*
X101090481Y-43142980D01*
X101115071Y-43116653D01*
X101139567Y-43091172D01*
X101149085Y-43081934D01*
X101171899Y-43059110D01*
X101194634Y-43036956D01*
X101205970Y-43026162D01*
X101217284Y-43015576D01*
X101228575Y-43005209D01*
X101239842Y-42995075D01*
X101241623Y-42993529D01*
X101243397Y-42992043D01*
X101246937Y-42989178D01*
X101250476Y-42986334D01*
X101252251Y-42984873D01*
X101254031Y-42983362D01*
X101275237Y-42965157D01*
X101285816Y-42956265D01*
X101296377Y-42947541D01*
X101306918Y-42939005D01*
X101317440Y-42930679D01*
X101327939Y-42922584D01*
X101338416Y-42914740D01*
X101341268Y-42912698D01*
X101344109Y-42910765D01*
X101346942Y-42908911D01*
X101349772Y-42907104D01*
X101355430Y-42903504D01*
X101358266Y-42901648D01*
X101361110Y-42899712D01*
X101379733Y-42886784D01*
X101389031Y-42880449D01*
X101398316Y-42874244D01*
X101407585Y-42868203D01*
X101416835Y-42862359D01*
X101426063Y-42856744D01*
X101435266Y-42851393D01*
X101439695Y-42848986D01*
X101444105Y-42846755D01*
X101448501Y-42844656D01*
X101452889Y-42842642D01*
X101461656Y-42838689D01*
X101466047Y-42836659D01*
X101470449Y-42834534D01*
X101485561Y-42826902D01*
X101500671Y-42819375D01*
X101508213Y-42815769D01*
X101515738Y-42812333D01*
X101523241Y-42809112D01*
X101530717Y-42806154D01*
X101537041Y-42803919D01*
X101543340Y-42801942D01*
X101549619Y-42800166D01*
X101555884Y-42798537D01*
X101568393Y-42795496D01*
X101574646Y-42793973D01*
X101580907Y-42792374D01*
X101586356Y-42790860D01*
X101591816Y-42789247D01*
X101602743Y-42785951D01*
X101608199Y-42784381D01*
X101613642Y-42782938D01*
X101619067Y-42781678D01*
X101621770Y-42781135D01*
X101624467Y-42780659D01*
X101636087Y-42778939D01*
X101647676Y-42777546D01*
X101659233Y-42776485D01*
X101670757Y-42775761D01*
X101682249Y-42775381D01*
X101693706Y-42775349D01*
X101705129Y-42775672D01*
G37*
%TD.AperFunction*%
%TA.AperFunction,NonConductor*%
G36*
X87431427Y-30675057D02*
G01*
X88700848Y-30760302D01*
X90050621Y-30892407D01*
X91465210Y-31063214D01*
X92929076Y-31264567D01*
X94426684Y-31488308D01*
X97460973Y-31970327D01*
X97781539Y-32021831D01*
X97633879Y-32094883D01*
X97486769Y-32169065D01*
X97340240Y-32244346D01*
X97194324Y-32320692D01*
X97099742Y-32371808D01*
X97005984Y-32424346D01*
X96912776Y-32477853D01*
X96819842Y-32531876D01*
X96700083Y-32601467D01*
X96639961Y-32635939D01*
X96579547Y-32670023D01*
X96402954Y-32769592D01*
X96227201Y-32870872D01*
X96052351Y-32973832D01*
X95878470Y-33078439D01*
X95864303Y-33087428D01*
X95850550Y-33096880D01*
X95837219Y-33106780D01*
X95824317Y-33117115D01*
X95811850Y-33127868D01*
X95799825Y-33139027D01*
X95788249Y-33150576D01*
X95777129Y-33162502D01*
X95766473Y-33174789D01*
X95756286Y-33187423D01*
X95746576Y-33200390D01*
X95737350Y-33213674D01*
X95728614Y-33227263D01*
X95720376Y-33241141D01*
X95712643Y-33255293D01*
X95705421Y-33269706D01*
X95698717Y-33284364D01*
X95692538Y-33299254D01*
X95686891Y-33314361D01*
X95681784Y-33329670D01*
X95677222Y-33345166D01*
X95673213Y-33360837D01*
X95669764Y-33376666D01*
X95666881Y-33392639D01*
X95664572Y-33408742D01*
X95662844Y-33424961D01*
X95661702Y-33441281D01*
X95661155Y-33457688D01*
X95661209Y-33474166D01*
X95661871Y-33490702D01*
X95663149Y-33507281D01*
X95665048Y-33523889D01*
X95670299Y-33554001D01*
X95677938Y-33584473D01*
X95687908Y-33615040D01*
X95700150Y-33645436D01*
X95714607Y-33675396D01*
X95731220Y-33704655D01*
X95749931Y-33732947D01*
X95770683Y-33760007D01*
X95793417Y-33785568D01*
X95818075Y-33809367D01*
X95831107Y-33820522D01*
X95844599Y-33831137D01*
X95858543Y-33841178D01*
X95872932Y-33850612D01*
X95887758Y-33859407D01*
X95903014Y-33867528D01*
X95918694Y-33874944D01*
X95934789Y-33881620D01*
X95951293Y-33887523D01*
X95968198Y-33892620D01*
X95985497Y-33896879D01*
X96003182Y-33900265D01*
X96125172Y-33919003D01*
X96249421Y-33935448D01*
X96376125Y-33949632D01*
X96505477Y-33961587D01*
X96199380Y-34099735D01*
X96274655Y-34394118D01*
X96175609Y-34111103D01*
X95983739Y-34188855D01*
X95703631Y-34301100D01*
X95500455Y-34379966D01*
X95296616Y-34457120D01*
X95092163Y-34532529D01*
X94887145Y-34606162D01*
X94869400Y-34612910D01*
X94851908Y-34620444D01*
X94834705Y-34628744D01*
X94817825Y-34637788D01*
X94801302Y-34647556D01*
X94785172Y-34658025D01*
X94769469Y-34669174D01*
X94754227Y-34680983D01*
X94739482Y-34693429D01*
X94725268Y-34706491D01*
X94711619Y-34720149D01*
X94698571Y-34734379D01*
X94686158Y-34749162D01*
X94674414Y-34764476D01*
X94663374Y-34780300D01*
X94653074Y-34796611D01*
X94643547Y-34813390D01*
X94634828Y-34830613D01*
X94626953Y-34848261D01*
X94619955Y-34866312D01*
X94613869Y-34884744D01*
X94608730Y-34903536D01*
X94604573Y-34922667D01*
X94601432Y-34942115D01*
X94599343Y-34961859D01*
X94598338Y-34981878D01*
X94598454Y-35002150D01*
X94599725Y-35022653D01*
X94602186Y-35043368D01*
X94605870Y-35064271D01*
X94610814Y-35085343D01*
X94617051Y-35106561D01*
X94622499Y-35122361D01*
X94628561Y-35137873D01*
X94635217Y-35153084D01*
X94642449Y-35167979D01*
X94650239Y-35182544D01*
X94658567Y-35196766D01*
X94667416Y-35210630D01*
X94676767Y-35224122D01*
X94686601Y-35237229D01*
X94696899Y-35249935D01*
X94707644Y-35262228D01*
X94718816Y-35274093D01*
X94730397Y-35285515D01*
X94742368Y-35296482D01*
X94754711Y-35306979D01*
X94767407Y-35316992D01*
X94780438Y-35326507D01*
X94793785Y-35335509D01*
X94807429Y-35343985D01*
X94821352Y-35351922D01*
X94835536Y-35359304D01*
X94849961Y-35366117D01*
X94864609Y-35372349D01*
X94879461Y-35377984D01*
X94894500Y-35383008D01*
X94909706Y-35387408D01*
X94925061Y-35391170D01*
X94940546Y-35394280D01*
X94956143Y-35396722D01*
X94971832Y-35398485D01*
X94987597Y-35399552D01*
X95003417Y-35399911D01*
X95011001Y-35399830D01*
X95018571Y-35399589D01*
X95026127Y-35399186D01*
X95033667Y-35398622D01*
X95041189Y-35397898D01*
X95048694Y-35397013D01*
X95056178Y-35395969D01*
X95063642Y-35394765D01*
X95078502Y-35391878D01*
X95093262Y-35388356D01*
X95107913Y-35384200D01*
X95122445Y-35379413D01*
X95457676Y-35257920D01*
X95791244Y-35131453D01*
X96448287Y-34873158D01*
X96590398Y-34816830D01*
X97010744Y-34646788D01*
X97395320Y-34483819D01*
X97750667Y-34325049D01*
X98083325Y-34167604D01*
X98283280Y-34069044D01*
X98482395Y-33968757D01*
X98680671Y-33866823D01*
X98878106Y-33763322D01*
X98895574Y-33753496D01*
X98912409Y-33742840D01*
X98928600Y-33731387D01*
X98944135Y-33719172D01*
X98959001Y-33706232D01*
X98973188Y-33692601D01*
X98986684Y-33678313D01*
X98999476Y-33663404D01*
X99011553Y-33647908D01*
X99022904Y-33631861D01*
X99033515Y-33615298D01*
X99043376Y-33598253D01*
X99052475Y-33580761D01*
X99060800Y-33562858D01*
X99068339Y-33544578D01*
X99075080Y-33525956D01*
X99081012Y-33507027D01*
X99086122Y-33487826D01*
X99090400Y-33468389D01*
X99093832Y-33448749D01*
X99096408Y-33428943D01*
X99098115Y-33409004D01*
X99098943Y-33388969D01*
X99098878Y-33368871D01*
X99097909Y-33348745D01*
X99096025Y-33328628D01*
X99093213Y-33308553D01*
X99089462Y-33288556D01*
X99084760Y-33268671D01*
X99079095Y-33248934D01*
X99072456Y-33229379D01*
X99064830Y-33210041D01*
X99058039Y-33194723D01*
X99050755Y-33179780D01*
X99042988Y-33165219D01*
X99034750Y-33151047D01*
X99026051Y-33137272D01*
X99016903Y-33123900D01*
X99007317Y-33110940D01*
X98997304Y-33098399D01*
X98986874Y-33086283D01*
X98976040Y-33074601D01*
X98964811Y-33063359D01*
X98953200Y-33052566D01*
X98941217Y-33042227D01*
X98928873Y-33032351D01*
X98916180Y-33022945D01*
X98903148Y-33014016D01*
X98889788Y-33005571D01*
X98876113Y-32997618D01*
X98862131Y-32990164D01*
X98847856Y-32983217D01*
X98833297Y-32976783D01*
X98818466Y-32970871D01*
X98803374Y-32965487D01*
X98788032Y-32960638D01*
X98772450Y-32956333D01*
X98756642Y-32952577D01*
X98740616Y-32949380D01*
X98724384Y-32946747D01*
X98707958Y-32944687D01*
X98691348Y-32943206D01*
X98674566Y-32942313D01*
X98657622Y-32942013D01*
X98644237Y-32942207D01*
X98630831Y-32942788D01*
X98617417Y-32943757D01*
X98604007Y-32945114D01*
X98590613Y-32946858D01*
X98577248Y-32948989D01*
X98563923Y-32951509D01*
X98550651Y-32954416D01*
X98471586Y-32972074D01*
X98392263Y-32988845D01*
X98312682Y-33004679D01*
X98232841Y-33019528D01*
X98014768Y-33054323D01*
X97950032Y-33062239D01*
X97886266Y-33069461D01*
X97823403Y-33076004D01*
X97761380Y-33081885D01*
X97900303Y-33014320D01*
X98039614Y-32947418D01*
X98179377Y-32881388D01*
X98319657Y-32816441D01*
X98454912Y-32755148D01*
X98590636Y-32694936D01*
X98726778Y-32635662D01*
X98863292Y-32577179D01*
X99021771Y-32511306D01*
X99180929Y-32446546D01*
X99340733Y-32382982D01*
X99501151Y-32320693D01*
X99506708Y-32318522D01*
X99512148Y-32316276D01*
X99517483Y-32313962D01*
X99522725Y-32311585D01*
X99527887Y-32309152D01*
X99532980Y-32306668D01*
X99543008Y-32301573D01*
X100032491Y-32379626D01*
X100532437Y-32456774D01*
X100695733Y-32482095D01*
X101267317Y-32567899D01*
X101831924Y-32650215D01*
X101890834Y-32655382D01*
X102247831Y-32633453D01*
X102932585Y-32597635D01*
X103352351Y-32579604D01*
X103799433Y-32564206D01*
X104255624Y-32553476D01*
X104702714Y-32549446D01*
X104789357Y-32549619D01*
X105206837Y-32554731D01*
X105646464Y-32565455D01*
X106514228Y-32596988D01*
X107658254Y-32653143D01*
X107724401Y-32654004D01*
X108789487Y-32497021D01*
X109871852Y-32329994D01*
X112107930Y-31972394D01*
X113757440Y-31707639D01*
X114491929Y-31591540D01*
X115277755Y-31470014D01*
X116057378Y-31352623D01*
X116865598Y-31235145D01*
X117860757Y-31098459D01*
X118790169Y-30980424D01*
X119657142Y-30880735D01*
X120464982Y-30799083D01*
X121216995Y-30735164D01*
X121916488Y-30688668D01*
X122566767Y-30659291D01*
X123171140Y-30646724D01*
X122979489Y-30741715D01*
X122788519Y-30838077D01*
X122598260Y-30935829D01*
X122408742Y-31034985D01*
X122276646Y-31106064D01*
X122145712Y-31179098D01*
X122015552Y-31253455D01*
X121885778Y-31328507D01*
X121719766Y-31424302D01*
X121636518Y-31471739D01*
X121552980Y-31518676D01*
X121307906Y-31657004D01*
X121064123Y-31797577D01*
X120821632Y-31940378D01*
X120580434Y-32085392D01*
X120563115Y-32096341D01*
X120546303Y-32107858D01*
X120530006Y-32119926D01*
X120514233Y-32132528D01*
X120498993Y-32145645D01*
X120484294Y-32159260D01*
X120470144Y-32173356D01*
X120456551Y-32187914D01*
X120443525Y-32202916D01*
X120431074Y-32218346D01*
X120419205Y-32234186D01*
X120407929Y-32250417D01*
X120397252Y-32267022D01*
X120387184Y-32283984D01*
X120377732Y-32301284D01*
X120368907Y-32318905D01*
X120360714Y-32336830D01*
X120353165Y-32355040D01*
X120346266Y-32373518D01*
X120340026Y-32392246D01*
X120334454Y-32411207D01*
X120329558Y-32430383D01*
X120325346Y-32449756D01*
X120321828Y-32469308D01*
X120319011Y-32489022D01*
X120316903Y-32508880D01*
X120315515Y-32528864D01*
X120314853Y-32548957D01*
X120314926Y-32569141D01*
X120315743Y-32589398D01*
X120317312Y-32609711D01*
X120319642Y-32630061D01*
X120326017Y-32666760D01*
X120335278Y-32703905D01*
X120347357Y-32741170D01*
X120362183Y-32778232D01*
X120379688Y-32814765D01*
X120399803Y-32850445D01*
X120422458Y-32884945D01*
X120447585Y-32917941D01*
X120475113Y-32949109D01*
X120504975Y-32978123D01*
X120520759Y-32991720D01*
X120537100Y-33004657D01*
X120553990Y-33016894D01*
X120571421Y-33028388D01*
X120589382Y-33039101D01*
X120607866Y-33048991D01*
X120626864Y-33058017D01*
X120646368Y-33066139D01*
X120666369Y-33073316D01*
X120686857Y-33079508D01*
X120707825Y-33084674D01*
X120729264Y-33088774D01*
X120845207Y-33107183D01*
X120961758Y-33124170D01*
X121078884Y-33139731D01*
X121196546Y-33153865D01*
X121314708Y-33166570D01*
X121433336Y-33177843D01*
X121552391Y-33187684D01*
X121671838Y-33196089D01*
X121466982Y-33290764D01*
X121261872Y-33384018D01*
X120912541Y-33539219D01*
X120843637Y-33567641D01*
X120574791Y-33676657D01*
X120324807Y-33775725D01*
X120044586Y-33884449D01*
X119763557Y-33990784D01*
X119481689Y-34094794D01*
X119198949Y-34196542D01*
X119177117Y-34204770D01*
X119155877Y-34213744D01*
X119135242Y-34223444D01*
X119115225Y-34233849D01*
X119095838Y-34244941D01*
X119077094Y-34256697D01*
X119059005Y-34269099D01*
X119041585Y-34282126D01*
X119024847Y-34295758D01*
X119008802Y-34309975D01*
X118993464Y-34324757D01*
X118978846Y-34340083D01*
X118964959Y-34355935D01*
X118951818Y-34372290D01*
X118939435Y-34389130D01*
X118927822Y-34406434D01*
X118916992Y-34424182D01*
X118906958Y-34442355D01*
X118897733Y-34460931D01*
X118889329Y-34479891D01*
X118881760Y-34499214D01*
X118875037Y-34518881D01*
X118869174Y-34538871D01*
X118864184Y-34559165D01*
X118860079Y-34579741D01*
X118856871Y-34600581D01*
X118854575Y-34621663D01*
X118853202Y-34642968D01*
X118852765Y-34664476D01*
X118853276Y-34686166D01*
X118854750Y-34708019D01*
X118857198Y-34730014D01*
X118860581Y-34751564D01*
X118864783Y-34772669D01*
X118869791Y-34793320D01*
X118875596Y-34813509D01*
X118882188Y-34833225D01*
X118889556Y-34852460D01*
X118897691Y-34871203D01*
X118906582Y-34889446D01*
X118916218Y-34907180D01*
X118926591Y-34924394D01*
X118937689Y-34941080D01*
X118949502Y-34957228D01*
X118962020Y-34972829D01*
X118975232Y-34987874D01*
X118989130Y-35002353D01*
X119003701Y-35016258D01*
X119018937Y-35029577D01*
X119034827Y-35042303D01*
X119051360Y-35054426D01*
X119068527Y-35065937D01*
X119086317Y-35076826D01*
X119104720Y-35087083D01*
X119123726Y-35096701D01*
X119143324Y-35105668D01*
X119163505Y-35113977D01*
X119184258Y-35121617D01*
X119205573Y-35128579D01*
X119227439Y-35134855D01*
X119249847Y-35140433D01*
X119272787Y-35145306D01*
X119296247Y-35149465D01*
X119320218Y-35152898D01*
X119468049Y-35170702D01*
X119617195Y-35186774D01*
X119767586Y-35201109D01*
X119919147Y-35213704D01*
X120071806Y-35224556D01*
X120225491Y-35233659D01*
X120380128Y-35241010D01*
X120535646Y-35246604D01*
X120350139Y-35314932D01*
X120167539Y-35380984D01*
X119987522Y-35444872D01*
X119809766Y-35506708D01*
X119699759Y-35545035D01*
X119589883Y-35584136D01*
X119370515Y-35663632D01*
X119083756Y-35767415D01*
X118939778Y-35817837D01*
X118795186Y-35866548D01*
X118779019Y-35872187D01*
X118763147Y-35878373D01*
X118747579Y-35885091D01*
X118732329Y-35892325D01*
X118702826Y-35908284D01*
X118674728Y-35926132D01*
X118648129Y-35945750D01*
X118623118Y-35967020D01*
X118599790Y-35989823D01*
X118578234Y-36014041D01*
X118558544Y-36039554D01*
X118540811Y-36066245D01*
X118525126Y-36093995D01*
X118511583Y-36122685D01*
X118505642Y-36137345D01*
X118500272Y-36152196D01*
X118495482Y-36167223D01*
X118491285Y-36182411D01*
X118487692Y-36197744D01*
X118484715Y-36213209D01*
X118482365Y-36228791D01*
X118480653Y-36244474D01*
X118472383Y-36268072D01*
X118466153Y-36288701D01*
X118461657Y-36309212D01*
X118458869Y-36329559D01*
X118457763Y-36349694D01*
X118458311Y-36369568D01*
X118460489Y-36389134D01*
X118464269Y-36408344D01*
X118469626Y-36427149D01*
X118476534Y-36445503D01*
X118484965Y-36463356D01*
X118494894Y-36480661D01*
X118506295Y-36497370D01*
X118519142Y-36513435D01*
X118533407Y-36528809D01*
X118549066Y-36543443D01*
X118566091Y-36557288D01*
X118586723Y-36577759D01*
X118607656Y-36596923D01*
X118628877Y-36614779D01*
X118650372Y-36631326D01*
X118672127Y-36646560D01*
X118694129Y-36660480D01*
X118716365Y-36673083D01*
X118738819Y-36684369D01*
X118761480Y-36694334D01*
X118784333Y-36702978D01*
X118807364Y-36710297D01*
X118830561Y-36716290D01*
X118853909Y-36720954D01*
X118877395Y-36724289D01*
X118901005Y-36726291D01*
X118924726Y-36726959D01*
X118939048Y-36726716D01*
X118953321Y-36725987D01*
X118967529Y-36724769D01*
X118981657Y-36723061D01*
X118995688Y-36720860D01*
X119009606Y-36718165D01*
X119023394Y-36714973D01*
X119037038Y-36711283D01*
X119326768Y-36630668D01*
X119488213Y-36586180D01*
X119649399Y-36540772D01*
X119810070Y-36493588D01*
X119969968Y-36443772D01*
X120200466Y-36367622D01*
X120430059Y-36288549D01*
X120658876Y-36207377D01*
X120887048Y-36124929D01*
X121335960Y-35958314D01*
X121793236Y-35781347D01*
X122257165Y-35594658D01*
X122726037Y-35398877D01*
X122978276Y-35290667D01*
X123229578Y-35180437D01*
X123479912Y-35068109D01*
X123729245Y-34953600D01*
X123750772Y-34942873D01*
X123771302Y-34931103D01*
X123790837Y-34918342D01*
X123809382Y-34904640D01*
X123826940Y-34890046D01*
X123843515Y-34874611D01*
X123859110Y-34858386D01*
X123873729Y-34841420D01*
X123887376Y-34823763D01*
X123900053Y-34805467D01*
X123911766Y-34786580D01*
X123922517Y-34767154D01*
X123932309Y-34747238D01*
X123941148Y-34726883D01*
X123949035Y-34706139D01*
X123955975Y-34685056D01*
X123961971Y-34663684D01*
X123967028Y-34642074D01*
X123971147Y-34620275D01*
X123974334Y-34598339D01*
X123976592Y-34576315D01*
X123977924Y-34554253D01*
X123978333Y-34532204D01*
X123977824Y-34510218D01*
X123976401Y-34488344D01*
X123974065Y-34466634D01*
X123970822Y-34445138D01*
X123966675Y-34423905D01*
X123961628Y-34402986D01*
X123955683Y-34382431D01*
X123948845Y-34362290D01*
X123941117Y-34342614D01*
X123933586Y-34325633D01*
X123925531Y-34309092D01*
X123916963Y-34292997D01*
X123907893Y-34277354D01*
X123898330Y-34262170D01*
X123888284Y-34247452D01*
X123877765Y-34233206D01*
X123866784Y-34219439D01*
X123855350Y-34206157D01*
X123843473Y-34193367D01*
X123831164Y-34181075D01*
X123818432Y-34169287D01*
X123805288Y-34158012D01*
X123791741Y-34147254D01*
X123777802Y-34137020D01*
X123763480Y-34127318D01*
X123748785Y-34118152D01*
X123733729Y-34109531D01*
X123718320Y-34101461D01*
X123702568Y-34093947D01*
X123686484Y-34086997D01*
X123670078Y-34080617D01*
X123653360Y-34074814D01*
X123636340Y-34069594D01*
X123619027Y-34064963D01*
X123601432Y-34060929D01*
X123583565Y-34057497D01*
X123565436Y-34054675D01*
X123547055Y-34052469D01*
X123528431Y-34050885D01*
X123509576Y-34049929D01*
X123490499Y-34049609D01*
X123476903Y-34049772D01*
X123463251Y-34050261D01*
X123449550Y-34051081D01*
X123435809Y-34052236D01*
X123422035Y-34053730D01*
X123408237Y-34055568D01*
X123394423Y-34057753D01*
X123380601Y-34060289D01*
X123282977Y-34078849D01*
X123185351Y-34096764D01*
X123087598Y-34113968D01*
X122989587Y-34130396D01*
X122658513Y-34179662D01*
X122453224Y-34204077D01*
X122252036Y-34225116D01*
X122055304Y-34242764D01*
X121863385Y-34257004D01*
X121800558Y-34260987D01*
X121736955Y-34264583D01*
X122238468Y-34057853D01*
X122704034Y-33857438D01*
X123140208Y-33660479D01*
X123553548Y-33464116D01*
X123828671Y-33328345D01*
X124102696Y-33190297D01*
X124375687Y-33050020D01*
X124647710Y-32907563D01*
X124668906Y-32895608D01*
X124689335Y-32882639D01*
X124708981Y-32868699D01*
X124727832Y-32853830D01*
X124745872Y-32838075D01*
X124763086Y-32821476D01*
X124779461Y-32804077D01*
X124794982Y-32785919D01*
X124809635Y-32767045D01*
X124823404Y-32747499D01*
X124836276Y-32727322D01*
X124848236Y-32706558D01*
X124859270Y-32685249D01*
X124869363Y-32663437D01*
X124878501Y-32641165D01*
X124886670Y-32618477D01*
X124893854Y-32595414D01*
X124900040Y-32572019D01*
X124905213Y-32548335D01*
X124909358Y-32524404D01*
X124912462Y-32500270D01*
X124914509Y-32475974D01*
X124915485Y-32451560D01*
X124915377Y-32427070D01*
X124914168Y-32402546D01*
X124911846Y-32378032D01*
X124908395Y-32353570D01*
X124903801Y-32329203D01*
X124898050Y-32304972D01*
X124891127Y-32280922D01*
X124883018Y-32257094D01*
X124873708Y-32233531D01*
X124865455Y-32214862D01*
X124856597Y-32196649D01*
X124847145Y-32178901D01*
X124837116Y-32161627D01*
X124826521Y-32144836D01*
X124815375Y-32128537D01*
X124803692Y-32112739D01*
X124791484Y-32097450D01*
X124778767Y-32082681D01*
X124765553Y-32068439D01*
X124751856Y-32054734D01*
X124737689Y-32041574D01*
X124723068Y-32028969D01*
X124708004Y-32016928D01*
X124692513Y-32005459D01*
X124676607Y-31994571D01*
X124660301Y-31984274D01*
X124643607Y-31974577D01*
X124626540Y-31965488D01*
X124609114Y-31957016D01*
X124591341Y-31949170D01*
X124573237Y-31941960D01*
X124554813Y-31935394D01*
X124536085Y-31929480D01*
X124517066Y-31924230D01*
X124497769Y-31919650D01*
X124478209Y-31915750D01*
X124458398Y-31912539D01*
X124438351Y-31910026D01*
X124418081Y-31908220D01*
X124397602Y-31907130D01*
X124376927Y-31906764D01*
X124360507Y-31906999D01*
X124344065Y-31907704D01*
X124327616Y-31908881D01*
X124311171Y-31910533D01*
X124294741Y-31912661D01*
X124278340Y-31915267D01*
X124261979Y-31918354D01*
X124245671Y-31921923D01*
X124139148Y-31945777D01*
X124032463Y-31968453D01*
X123925583Y-31989869D01*
X123818479Y-32009945D01*
X123764584Y-32019473D01*
X123710819Y-32028678D01*
X123657054Y-32037560D01*
X123603162Y-32046119D01*
X123470182Y-32065239D01*
X123285443Y-32085549D01*
X123110299Y-32102145D01*
X122943616Y-32115187D01*
X122784265Y-32124839D01*
X123222399Y-31907481D01*
X123667542Y-31695710D01*
X124118821Y-31489947D01*
X124575364Y-31290612D01*
X124997388Y-31115601D01*
X125256072Y-31012486D01*
X125515531Y-30911824D01*
X125531875Y-30905412D01*
X125547844Y-30898833D01*
X125563450Y-30892079D01*
X125578704Y-30885147D01*
X125593619Y-30878028D01*
X125608207Y-30870718D01*
X125622481Y-30863209D01*
X125636453Y-30855497D01*
X125692118Y-30869033D01*
X125744845Y-30882390D01*
X125795311Y-30895780D01*
X125844194Y-30909413D01*
X125875947Y-30919110D01*
X125916583Y-30932215D01*
X125966493Y-30948687D01*
X126045686Y-30974159D01*
X126076318Y-30984465D01*
X126103948Y-30994334D01*
X126126391Y-31002850D01*
X126148348Y-31011560D01*
X126169982Y-31020398D01*
X126191453Y-31029301D01*
X126235906Y-31047816D01*
X126273447Y-31063731D01*
X126306078Y-31078063D01*
X126335805Y-31091830D01*
X126348244Y-31097755D01*
X126360518Y-31103764D01*
X126384683Y-31115989D01*
X126408524Y-31128407D01*
X126432267Y-31140923D01*
X126459428Y-31155713D01*
X126486526Y-31170873D01*
X126513365Y-31186390D01*
X126539754Y-31202245D01*
X126560225Y-31214943D01*
X126580276Y-31227739D01*
X126599874Y-31240663D01*
X126618989Y-31253749D01*
X126631426Y-31262460D01*
X126643681Y-31271276D01*
X126655766Y-31280188D01*
X126667695Y-31289190D01*
X126679477Y-31298272D01*
X126691127Y-31307427D01*
X126714074Y-31325923D01*
X126776429Y-31378289D01*
X126787787Y-31388911D01*
X126798882Y-31399707D01*
X126809743Y-31410657D01*
X126820398Y-31421739D01*
X126830876Y-31432935D01*
X126841204Y-31444224D01*
X126861524Y-31466999D01*
X126903207Y-31513164D01*
X126916850Y-31530767D01*
X126930118Y-31548573D01*
X126942990Y-31566588D01*
X126955445Y-31584821D01*
X126967465Y-31603281D01*
X126979028Y-31621974D01*
X126990114Y-31640910D01*
X127000703Y-31660096D01*
X127027512Y-31714966D01*
X127051255Y-31773893D01*
X127071591Y-31837018D01*
X127088181Y-31904481D01*
X127100684Y-31976423D01*
X127108758Y-32052984D01*
X127112064Y-32134305D01*
X127110261Y-32220526D01*
X127103008Y-32311787D01*
X127089965Y-32408230D01*
X127070791Y-32509993D01*
X127045146Y-32617218D01*
X127012688Y-32730046D01*
X126973078Y-32848616D01*
X126925975Y-32973068D01*
X126871038Y-33103545D01*
X126807926Y-33240185D01*
X126736300Y-33383129D01*
X126655818Y-33532518D01*
X126566140Y-33688492D01*
X126466925Y-33851192D01*
X126357834Y-34020757D01*
X126238524Y-34197329D01*
X126108656Y-34381047D01*
X125967889Y-34572053D01*
X125815882Y-34770486D01*
X125652296Y-34976488D01*
X125476788Y-35190197D01*
X125289020Y-35411756D01*
X125088649Y-35641304D01*
X124875336Y-35878981D01*
X124648740Y-36124929D01*
X124183435Y-36620540D01*
X123763715Y-37056780D01*
X123380130Y-37437506D01*
X123023230Y-37766574D01*
X122851834Y-37912942D01*
X122683565Y-38047841D01*
X122517243Y-38171754D01*
X122351685Y-38285163D01*
X122185711Y-38388549D01*
X122018139Y-38482395D01*
X121847789Y-38567183D01*
X121673478Y-38643395D01*
X121494026Y-38711513D01*
X121308251Y-38772018D01*
X121114973Y-38825394D01*
X120913009Y-38872122D01*
X120701179Y-38912683D01*
X120478301Y-38947561D01*
X120243194Y-38977237D01*
X119994677Y-39002193D01*
X119452687Y-39039874D01*
X118842881Y-39064459D01*
X118155809Y-39079806D01*
X117382020Y-39089771D01*
X116989881Y-39093022D01*
X116614797Y-39094077D01*
X116614793Y-39094077D01*
X115752331Y-39087619D01*
X114987728Y-39067888D01*
X114313471Y-39034347D01*
X113722048Y-38986461D01*
X113205946Y-38923694D01*
X112757653Y-38845510D01*
X112369656Y-38751373D01*
X112034442Y-38640747D01*
X111744500Y-38513096D01*
X111492317Y-38367884D01*
X111270380Y-38204575D01*
X111071177Y-38022634D01*
X110887195Y-37821523D01*
X110710922Y-37600709D01*
X110351453Y-37097821D01*
X110085855Y-36719424D01*
X109938024Y-36515091D01*
X109777996Y-36300994D01*
X109604137Y-36077377D01*
X109414813Y-35844485D01*
X109208391Y-35602562D01*
X109098259Y-35478290D01*
X108983239Y-35351852D01*
X108928832Y-35295307D01*
X108872263Y-35241464D01*
X108813635Y-35190373D01*
X108753050Y-35142089D01*
X108690610Y-35096663D01*
X108626420Y-35054148D01*
X108560580Y-35014596D01*
X108493195Y-34978060D01*
X108424367Y-34944592D01*
X108354198Y-34914245D01*
X108282791Y-34887071D01*
X108210249Y-34863123D01*
X108136674Y-34842453D01*
X108062170Y-34825114D01*
X107986839Y-34811158D01*
X107910783Y-34800637D01*
X107449723Y-34752280D01*
X107011025Y-34714917D01*
X106593663Y-34687143D01*
X106196615Y-34667550D01*
X105818856Y-34654731D01*
X105459365Y-34647280D01*
X104791085Y-34642853D01*
X104122929Y-34647280D01*
X103763489Y-34654731D01*
X103385770Y-34667550D01*
X102988745Y-34687143D01*
X102571386Y-34714917D01*
X102132667Y-34752280D01*
X101671559Y-34800637D01*
X101595564Y-34811128D01*
X101520285Y-34825057D01*
X101445825Y-34842374D01*
X101372288Y-34863026D01*
X101299777Y-34886960D01*
X101228394Y-34914124D01*
X101158242Y-34944465D01*
X101089425Y-34977931D01*
X101022045Y-35014469D01*
X100956205Y-35054027D01*
X100892008Y-35096552D01*
X100829557Y-35141992D01*
X100768956Y-35190295D01*
X100710306Y-35241407D01*
X100653711Y-35295277D01*
X100599275Y-35351852D01*
X100374184Y-35602498D01*
X100167840Y-35844327D01*
X99978641Y-36077048D01*
X99804988Y-36300370D01*
X99645280Y-36514003D01*
X99497915Y-36717656D01*
X99233813Y-37093860D01*
X99049992Y-37356332D01*
X98873527Y-37597956D01*
X98696890Y-37819271D01*
X98606156Y-37922481D01*
X98512557Y-38020817D01*
X98415153Y-38114346D01*
X98313002Y-38203135D01*
X98205165Y-38287253D01*
X98090699Y-38366765D01*
X97968665Y-38441741D01*
X97838122Y-38512248D01*
X97698129Y-38578352D01*
X97547745Y-38640123D01*
X97386029Y-38697626D01*
X97212042Y-38750930D01*
X97024841Y-38800102D01*
X96823487Y-38845211D01*
X96607039Y-38886322D01*
X96374555Y-38923504D01*
X96125096Y-38956825D01*
X95857720Y-38986351D01*
X95571487Y-39012151D01*
X95265456Y-39034292D01*
X94938685Y-39052841D01*
X94590236Y-39067866D01*
X93824535Y-39087615D01*
X92960828Y-39094077D01*
X92588823Y-39093022D01*
X92200152Y-39089771D01*
X90739356Y-39064459D01*
X90129582Y-39039873D01*
X89587623Y-39002192D01*
X89104028Y-38947560D01*
X88669349Y-38872121D01*
X88274133Y-38772018D01*
X87908932Y-38643394D01*
X87734633Y-38567183D01*
X87564294Y-38482395D01*
X87230769Y-38285162D01*
X86898907Y-38047841D01*
X86559258Y-37766574D01*
X86202370Y-37437506D01*
X85818794Y-37056780D01*
X84933777Y-36124929D01*
X84493842Y-35641302D01*
X84105687Y-35190189D01*
X83766586Y-34770469D01*
X83473814Y-34381018D01*
X83224643Y-34020712D01*
X83016348Y-33688428D01*
X82846202Y-33383045D01*
X82711481Y-33103437D01*
X82609456Y-32848483D01*
X82537403Y-32617058D01*
X82492594Y-32408041D01*
X82472305Y-32220308D01*
X82473809Y-32052736D01*
X82494379Y-31904201D01*
X82531290Y-31773581D01*
X82581816Y-31659752D01*
X82618056Y-31597583D01*
X82659433Y-31537362D01*
X82705939Y-31479091D01*
X82757570Y-31422770D01*
X82814317Y-31368402D01*
X82876175Y-31315988D01*
X82943138Y-31265531D01*
X83015200Y-31217031D01*
X83092354Y-31170491D01*
X83174593Y-31125913D01*
X83261913Y-31083297D01*
X83354305Y-31042646D01*
X83451765Y-31003961D01*
X83554285Y-30967245D01*
X83661860Y-30932498D01*
X83774484Y-30899723D01*
X84014850Y-30840093D01*
X84275334Y-30788370D01*
X84555885Y-30744568D01*
X84856453Y-30708698D01*
X85176989Y-30680776D01*
X85517441Y-30660815D01*
X85877760Y-30648828D01*
X86257896Y-30644830D01*
X87431427Y-30675057D01*
G37*
%TD.AperFunction*%
M02*
