M48
; DRILL file KiCad 10.0.2 date 2026-07-10T18:06:01
; FORMAT={-:-/ absolute / metric / decimal}
; #@! TF.CreationDate,2026-07-10T18:06:01+02:00
; #@! TF.GenerationSoftware,Kicad,Pcbnew,10.0.2
; #@! TF.FileFunction,Plated,1,2,PTH
FMAT,2
METRIC
; #@! TA.AperFunction,Plated,PTH,ViaDrill
T1C0.400
; #@! TA.AperFunction,Plated,PTH,ComponentDrill
T2C1.000
%
G90
G05
T1
X63.888Y-54.565
X67.012Y-74.779
X70.447Y-86.341
X70.512Y-40.279
X75.012Y-60.279
X82.012Y-71.779
X83.711Y-31.574
X98.0Y-78.5
X98.783Y-32.503
X110.729Y-32.724
X111.512Y-78.721
X125.801Y-31.796
X127.5Y-72.0
X134.5Y-60.5
X139.0Y-40.5
X139.066Y-86.562
X142.5Y-75.0
X145.625Y-54.786
T2
X65.627Y-56.57
X65.627Y-83.875
X66.7Y-54.268
X66.7Y-81.573
X67.774Y-51.966
X67.774Y-79.271
X67.929Y-57.643
X67.929Y-84.948
X68.847Y-49.664
X68.847Y-76.969
X69.002Y-55.341
X69.002Y-82.646
X69.921Y-47.362
X69.921Y-74.667
X70.076Y-53.039
X70.076Y-80.344
X70.994Y-45.06
X70.994Y-72.365
X71.149Y-50.737
X71.149Y-78.042
X72.068Y-42.758
X72.068Y-70.063
X72.223Y-48.435
X72.223Y-75.74
X73.141Y-40.456
X73.141Y-67.761
X73.296Y-46.133
X73.296Y-73.438
X74.37Y-43.831
X74.37Y-71.136
X75.443Y-41.529
X75.443Y-68.834
X87.023Y-42.96
X87.023Y-45.5
X101.568Y-75.62
X104.108Y-75.62
X106.648Y-75.62
X109.188Y-75.62
X134.043Y-41.529
X134.043Y-68.834
X135.116Y-43.831
X135.116Y-71.136
X136.19Y-46.133
X136.19Y-73.438
X136.345Y-40.456
X136.345Y-67.761
X137.263Y-48.435
X137.263Y-75.74
X137.418Y-42.758
X137.418Y-70.063
X138.337Y-50.737
X138.337Y-78.042
X138.492Y-45.06
X138.492Y-72.365
X139.41Y-53.039
X139.41Y-80.344
X139.565Y-47.362
X139.565Y-74.667
X140.484Y-55.341
X140.484Y-82.646
X140.639Y-49.664
X140.639Y-76.969
X141.557Y-57.643
X141.557Y-84.948
X141.712Y-51.966
X141.712Y-79.271
X142.786Y-54.268
X142.786Y-81.573
X143.859Y-56.57
X143.859Y-83.875
M30
