%TF.GenerationSoftware,KiCad,Pcbnew,10.0.2*%
%TF.CreationDate,2026-07-10T18:06:04+02:00*%
%TF.ProjectId,base,62617365-2e6b-4696-9361-645f70636258,1.0*%
%TF.SameCoordinates,Original*%
%TF.FileFunction,Legend,Top*%
%TF.FilePolarity,Positive*%
%FSLAX46Y46*%
G04 Gerber Fmt 4.6, Leading zero omitted, Abs format (unit mm)*
G04 Created by KiCad (PCBNEW 10.0.2) date 2026-07-10 18:06:04*
%MOMM*%
%LPD*%
G01*
G04 APERTURE LIST*
%ADD10C,0.153000*%
%ADD11C,0.127000*%
%ADD12C,0.200000*%
%ADD13C,0.100000*%
%ADD14C,0.120000*%
G04 APERTURE END LIST*
D10*
X88927087Y-54003889D02*
X89427087Y-53503889D01*
X88927087Y-54003889D02*
X89427087Y-54503889D01*
X93427087Y-54003889D02*
X88927087Y-54003889D01*
X88838752Y-51869663D02*
X88838752Y-52679186D01*
X88838752Y-52679186D02*
X88886371Y-52774424D01*
X88886371Y-52774424D02*
X88933990Y-52822044D01*
X88933990Y-52822044D02*
X89029228Y-52869663D01*
X89029228Y-52869663D02*
X89219704Y-52869663D01*
X89219704Y-52869663D02*
X89314942Y-52822044D01*
X89314942Y-52822044D02*
X89362561Y-52774424D01*
X89362561Y-52774424D02*
X89410180Y-52679186D01*
X89410180Y-52679186D02*
X89410180Y-51869663D01*
X89838752Y-52822044D02*
X89981609Y-52869663D01*
X89981609Y-52869663D02*
X90219704Y-52869663D01*
X90219704Y-52869663D02*
X90314942Y-52822044D01*
X90314942Y-52822044D02*
X90362561Y-52774424D01*
X90362561Y-52774424D02*
X90410180Y-52679186D01*
X90410180Y-52679186D02*
X90410180Y-52583948D01*
X90410180Y-52583948D02*
X90362561Y-52488710D01*
X90362561Y-52488710D02*
X90314942Y-52441091D01*
X90314942Y-52441091D02*
X90219704Y-52393472D01*
X90219704Y-52393472D02*
X90029228Y-52345853D01*
X90029228Y-52345853D02*
X89933990Y-52298234D01*
X89933990Y-52298234D02*
X89886371Y-52250615D01*
X89886371Y-52250615D02*
X89838752Y-52155377D01*
X89838752Y-52155377D02*
X89838752Y-52060139D01*
X89838752Y-52060139D02*
X89886371Y-51964901D01*
X89886371Y-51964901D02*
X89933990Y-51917282D01*
X89933990Y-51917282D02*
X90029228Y-51869663D01*
X90029228Y-51869663D02*
X90267323Y-51869663D01*
X90267323Y-51869663D02*
X90410180Y-51917282D01*
X91172085Y-52345853D02*
X91314942Y-52393472D01*
X91314942Y-52393472D02*
X91362561Y-52441091D01*
X91362561Y-52441091D02*
X91410180Y-52536329D01*
X91410180Y-52536329D02*
X91410180Y-52679186D01*
X91410180Y-52679186D02*
X91362561Y-52774424D01*
X91362561Y-52774424D02*
X91314942Y-52822044D01*
X91314942Y-52822044D02*
X91219704Y-52869663D01*
X91219704Y-52869663D02*
X90838752Y-52869663D01*
X90838752Y-52869663D02*
X90838752Y-51869663D01*
X90838752Y-51869663D02*
X91172085Y-51869663D01*
X91172085Y-51869663D02*
X91267323Y-51917282D01*
X91267323Y-51917282D02*
X91314942Y-51964901D01*
X91314942Y-51964901D02*
X91362561Y-52060139D01*
X91362561Y-52060139D02*
X91362561Y-52155377D01*
X91362561Y-52155377D02*
X91314942Y-52250615D01*
X91314942Y-52250615D02*
X91267323Y-52298234D01*
X91267323Y-52298234D02*
X91172085Y-52345853D01*
X91172085Y-52345853D02*
X90838752Y-52345853D01*
X91838752Y-52488710D02*
X92600657Y-52488710D01*
X93648275Y-52774424D02*
X93600656Y-52822044D01*
X93600656Y-52822044D02*
X93457799Y-52869663D01*
X93457799Y-52869663D02*
X93362561Y-52869663D01*
X93362561Y-52869663D02*
X93219704Y-52822044D01*
X93219704Y-52822044D02*
X93124466Y-52726805D01*
X93124466Y-52726805D02*
X93076847Y-52631567D01*
X93076847Y-52631567D02*
X93029228Y-52441091D01*
X93029228Y-52441091D02*
X93029228Y-52298234D01*
X93029228Y-52298234D02*
X93076847Y-52107758D01*
X93076847Y-52107758D02*
X93124466Y-52012520D01*
X93124466Y-52012520D02*
X93219704Y-51917282D01*
X93219704Y-51917282D02*
X93362561Y-51869663D01*
X93362561Y-51869663D02*
X93457799Y-51869663D01*
X93457799Y-51869663D02*
X93600656Y-51917282D01*
X93600656Y-51917282D02*
X93648275Y-51964901D01*
X116672085Y-58845853D02*
X116338752Y-58845853D01*
X116338752Y-59369663D02*
X116338752Y-58369663D01*
X116338752Y-58369663D02*
X116814942Y-58369663D01*
X117053038Y-58369663D02*
X117624466Y-58369663D01*
X117338752Y-59369663D02*
X117338752Y-58369663D01*
X117910181Y-58464901D02*
X117957800Y-58417282D01*
X117957800Y-58417282D02*
X118053038Y-58369663D01*
X118053038Y-58369663D02*
X118291133Y-58369663D01*
X118291133Y-58369663D02*
X118386371Y-58417282D01*
X118386371Y-58417282D02*
X118433990Y-58464901D01*
X118433990Y-58464901D02*
X118481609Y-58560139D01*
X118481609Y-58560139D02*
X118481609Y-58655377D01*
X118481609Y-58655377D02*
X118433990Y-58798234D01*
X118433990Y-58798234D02*
X117862562Y-59369663D01*
X117862562Y-59369663D02*
X118481609Y-59369663D01*
X118814943Y-58369663D02*
X119433990Y-58369663D01*
X119433990Y-58369663D02*
X119100657Y-58750615D01*
X119100657Y-58750615D02*
X119243514Y-58750615D01*
X119243514Y-58750615D02*
X119338752Y-58798234D01*
X119338752Y-58798234D02*
X119386371Y-58845853D01*
X119386371Y-58845853D02*
X119433990Y-58941091D01*
X119433990Y-58941091D02*
X119433990Y-59179186D01*
X119433990Y-59179186D02*
X119386371Y-59274424D01*
X119386371Y-59274424D02*
X119338752Y-59322044D01*
X119338752Y-59322044D02*
X119243514Y-59369663D01*
X119243514Y-59369663D02*
X118957800Y-59369663D01*
X118957800Y-59369663D02*
X118862562Y-59322044D01*
X118862562Y-59322044D02*
X118814943Y-59274424D01*
X119814943Y-58464901D02*
X119862562Y-58417282D01*
X119862562Y-58417282D02*
X119957800Y-58369663D01*
X119957800Y-58369663D02*
X120195895Y-58369663D01*
X120195895Y-58369663D02*
X120291133Y-58417282D01*
X120291133Y-58417282D02*
X120338752Y-58464901D01*
X120338752Y-58464901D02*
X120386371Y-58560139D01*
X120386371Y-58560139D02*
X120386371Y-58655377D01*
X120386371Y-58655377D02*
X120338752Y-58798234D01*
X120338752Y-58798234D02*
X119767324Y-59369663D01*
X119767324Y-59369663D02*
X120386371Y-59369663D01*
X120814943Y-59369663D02*
X120814943Y-58369663D01*
X120814943Y-58845853D02*
X121386371Y-58845853D01*
X121386371Y-59369663D02*
X121386371Y-58369663D01*
X83113628Y-42599742D02*
X83018390Y-42552123D01*
X83018390Y-42552123D02*
X82875533Y-42552123D01*
X82875533Y-42552123D02*
X82732676Y-42599742D01*
X82732676Y-42599742D02*
X82637438Y-42694980D01*
X82637438Y-42694980D02*
X82589819Y-42790218D01*
X82589819Y-42790218D02*
X82542200Y-42980694D01*
X82542200Y-42980694D02*
X82542200Y-43123551D01*
X82542200Y-43123551D02*
X82589819Y-43314027D01*
X82589819Y-43314027D02*
X82637438Y-43409265D01*
X82637438Y-43409265D02*
X82732676Y-43504504D01*
X82732676Y-43504504D02*
X82875533Y-43552123D01*
X82875533Y-43552123D02*
X82970771Y-43552123D01*
X82970771Y-43552123D02*
X83113628Y-43504504D01*
X83113628Y-43504504D02*
X83161247Y-43456884D01*
X83161247Y-43456884D02*
X83161247Y-43123551D01*
X83161247Y-43123551D02*
X82970771Y-43123551D01*
X83589819Y-43552123D02*
X83589819Y-42552123D01*
X83589819Y-42552123D02*
X84161247Y-43552123D01*
X84161247Y-43552123D02*
X84161247Y-42552123D01*
X84637438Y-43552123D02*
X84637438Y-42552123D01*
X84637438Y-42552123D02*
X84875533Y-42552123D01*
X84875533Y-42552123D02*
X85018390Y-42599742D01*
X85018390Y-42599742D02*
X85113628Y-42694980D01*
X85113628Y-42694980D02*
X85161247Y-42790218D01*
X85161247Y-42790218D02*
X85208866Y-42980694D01*
X85208866Y-42980694D02*
X85208866Y-43123551D01*
X85208866Y-43123551D02*
X85161247Y-43314027D01*
X85161247Y-43314027D02*
X85113628Y-43409265D01*
X85113628Y-43409265D02*
X85018390Y-43504504D01*
X85018390Y-43504504D02*
X84875533Y-43552123D01*
X84875533Y-43552123D02*
X84637438Y-43552123D01*
X82304105Y-44993139D02*
X82923152Y-44993139D01*
X82923152Y-44993139D02*
X82589819Y-45374091D01*
X82589819Y-45374091D02*
X82732676Y-45374091D01*
X82732676Y-45374091D02*
X82827914Y-45421710D01*
X82827914Y-45421710D02*
X82875533Y-45469329D01*
X82875533Y-45469329D02*
X82923152Y-45564567D01*
X82923152Y-45564567D02*
X82923152Y-45802662D01*
X82923152Y-45802662D02*
X82875533Y-45897900D01*
X82875533Y-45897900D02*
X82827914Y-45945520D01*
X82827914Y-45945520D02*
X82732676Y-45993139D01*
X82732676Y-45993139D02*
X82446962Y-45993139D01*
X82446962Y-45993139D02*
X82351724Y-45945520D01*
X82351724Y-45945520D02*
X82304105Y-45897900D01*
X83351724Y-45897900D02*
X83399343Y-45945520D01*
X83399343Y-45945520D02*
X83351724Y-45993139D01*
X83351724Y-45993139D02*
X83304105Y-45945520D01*
X83304105Y-45945520D02*
X83351724Y-45897900D01*
X83351724Y-45897900D02*
X83351724Y-45993139D01*
X83732676Y-44993139D02*
X84351723Y-44993139D01*
X84351723Y-44993139D02*
X84018390Y-45374091D01*
X84018390Y-45374091D02*
X84161247Y-45374091D01*
X84161247Y-45374091D02*
X84256485Y-45421710D01*
X84256485Y-45421710D02*
X84304104Y-45469329D01*
X84304104Y-45469329D02*
X84351723Y-45564567D01*
X84351723Y-45564567D02*
X84351723Y-45802662D01*
X84351723Y-45802662D02*
X84304104Y-45897900D01*
X84304104Y-45897900D02*
X84256485Y-45945520D01*
X84256485Y-45945520D02*
X84161247Y-45993139D01*
X84161247Y-45993139D02*
X83875533Y-45993139D01*
X83875533Y-45993139D02*
X83780295Y-45945520D01*
X83780295Y-45945520D02*
X83732676Y-45897900D01*
X84637438Y-44993139D02*
X84970771Y-45993139D01*
X84970771Y-45993139D02*
X85304104Y-44993139D01*
X101235589Y-73811090D02*
X101639650Y-73407029D01*
X102144727Y-74316166D02*
X101437620Y-73609059D01*
X102582460Y-73878433D02*
X101875353Y-73171326D01*
X101875353Y-73171326D02*
X102043712Y-73002968D01*
X102043712Y-73002968D02*
X102178399Y-72935624D01*
X102178399Y-72935624D02*
X102313086Y-72935624D01*
X102313086Y-72935624D02*
X102414101Y-72969296D01*
X102414101Y-72969296D02*
X102582460Y-73070311D01*
X102582460Y-73070311D02*
X102683475Y-73171326D01*
X102683475Y-73171326D02*
X102784490Y-73339685D01*
X102784490Y-73339685D02*
X102818162Y-73440700D01*
X102818162Y-73440700D02*
X102818162Y-73575387D01*
X102818162Y-73575387D02*
X102750818Y-73710074D01*
X102750818Y-73710074D02*
X102582460Y-73878433D01*
X102717147Y-72329533D02*
X102851834Y-72194846D01*
X102851834Y-72194846D02*
X102952849Y-72161174D01*
X102952849Y-72161174D02*
X103087536Y-72161174D01*
X103087536Y-72161174D02*
X103255895Y-72262189D01*
X103255895Y-72262189D02*
X103491597Y-72497891D01*
X103491597Y-72497891D02*
X103592612Y-72666250D01*
X103592612Y-72666250D02*
X103592612Y-72800937D01*
X103592612Y-72800937D02*
X103558940Y-72901952D01*
X103558940Y-72901952D02*
X103424253Y-73036639D01*
X103424253Y-73036639D02*
X103323238Y-73070311D01*
X103323238Y-73070311D02*
X103188551Y-73070311D01*
X103188551Y-73070311D02*
X103020192Y-72969296D01*
X103020192Y-72969296D02*
X102784490Y-72733594D01*
X102784490Y-72733594D02*
X102683475Y-72565235D01*
X102683475Y-72565235D02*
X102683475Y-72430548D01*
X102683475Y-72430548D02*
X102717147Y-72329533D01*
X103850801Y-73811090D02*
X104254862Y-73407029D01*
X104759939Y-74316166D02*
X104052832Y-73609059D01*
X105197672Y-73878433D02*
X104490565Y-73171326D01*
X104490565Y-73171326D02*
X104658924Y-73002968D01*
X104658924Y-73002968D02*
X104793611Y-72935624D01*
X104793611Y-72935624D02*
X104928298Y-72935624D01*
X104928298Y-72935624D02*
X105029313Y-72969296D01*
X105029313Y-72969296D02*
X105197672Y-73070311D01*
X105197672Y-73070311D02*
X105298687Y-73171326D01*
X105298687Y-73171326D02*
X105399702Y-73339685D01*
X105399702Y-73339685D02*
X105433374Y-73440700D01*
X105433374Y-73440700D02*
X105433374Y-73575387D01*
X105433374Y-73575387D02*
X105366030Y-73710074D01*
X105366030Y-73710074D02*
X105197672Y-73878433D01*
X105904778Y-73171326D02*
X105197672Y-72464220D01*
X106294503Y-73811090D02*
X106698564Y-73407029D01*
X107203641Y-74316166D02*
X106496534Y-73609059D01*
X107641374Y-73878433D02*
X106934267Y-73171326D01*
X106934267Y-73171326D02*
X107675045Y-73440700D01*
X107675045Y-73440700D02*
X107405671Y-72699922D01*
X107405671Y-72699922D02*
X108112778Y-73407029D01*
X108382152Y-73070311D02*
X108516839Y-73002968D01*
X108516839Y-73002968D02*
X108685198Y-72834609D01*
X108685198Y-72834609D02*
X108718870Y-72733594D01*
X108718870Y-72733594D02*
X108718870Y-72666250D01*
X108718870Y-72666250D02*
X108685198Y-72565235D01*
X108685198Y-72565235D02*
X108617854Y-72497891D01*
X108617854Y-72497891D02*
X108516839Y-72464220D01*
X108516839Y-72464220D02*
X108449495Y-72464220D01*
X108449495Y-72464220D02*
X108348480Y-72497891D01*
X108348480Y-72497891D02*
X108180121Y-72598907D01*
X108180121Y-72598907D02*
X108079106Y-72632578D01*
X108079106Y-72632578D02*
X108011763Y-72632578D01*
X108011763Y-72632578D02*
X107910747Y-72598907D01*
X107910747Y-72598907D02*
X107843404Y-72531563D01*
X107843404Y-72531563D02*
X107809732Y-72430548D01*
X107809732Y-72430548D02*
X107809732Y-72363204D01*
X107809732Y-72363204D02*
X107843404Y-72262189D01*
X107843404Y-72262189D02*
X108011763Y-72093830D01*
X108011763Y-72093830D02*
X108146450Y-72026487D01*
X108861383Y-73811090D02*
X109265444Y-73407029D01*
X109770521Y-74316166D02*
X109063414Y-73609059D01*
X110544971Y-73407029D02*
X110544971Y-73474372D01*
X110544971Y-73474372D02*
X110477628Y-73609059D01*
X110477628Y-73609059D02*
X110410284Y-73676403D01*
X110410284Y-73676403D02*
X110275597Y-73743746D01*
X110275597Y-73743746D02*
X110140910Y-73743746D01*
X110140910Y-73743746D02*
X110039895Y-73710074D01*
X110039895Y-73710074D02*
X109871536Y-73609059D01*
X109871536Y-73609059D02*
X109770521Y-73508044D01*
X109770521Y-73508044D02*
X109669506Y-73339685D01*
X109669506Y-73339685D02*
X109635834Y-73238670D01*
X109635834Y-73238670D02*
X109635834Y-73103983D01*
X109635834Y-73103983D02*
X109703177Y-72969296D01*
X109703177Y-72969296D02*
X109770521Y-72901952D01*
X109770521Y-72901952D02*
X109905208Y-72834609D01*
X109905208Y-72834609D02*
X109972551Y-72834609D01*
X110915360Y-73171326D02*
X110208254Y-72464220D01*
X111319421Y-72767265D02*
X110612315Y-72666250D01*
X110612315Y-72060159D02*
X110612315Y-72868281D01*
%TO.C,S1*%
D11*
X90588867Y-74359604D02*
X95882807Y-77509167D01*
X91112451Y-72658089D02*
X90774998Y-73225294D01*
X93395536Y-72771334D02*
X94650272Y-73517823D01*
X97128298Y-76237140D02*
X96790845Y-76804345D01*
D12*
X93779687Y-70787737D02*
G75*
G02*
X93579687Y-70787737I-100000J0D01*
G01*
X93579687Y-70787737D02*
G75*
G02*
X93779687Y-70787737I100000J0D01*
G01*
%TO.C,J7*%
D13*
X87765296Y-56883156D02*
X87765296Y-48883156D01*
X87765296Y-56883156D02*
X88415296Y-56883156D01*
X88415296Y-48883156D02*
X87765296Y-48883156D01*
X88415296Y-48883156D02*
X88415296Y-42453156D01*
X88415296Y-63313156D02*
X88415296Y-56883156D01*
X89415296Y-41453156D02*
X94005191Y-41453156D01*
X89415296Y-64313156D02*
X94005401Y-64313156D01*
D14*
X93345045Y-41453103D02*
X93345045Y-43993425D01*
X93395103Y-61772834D02*
X96545264Y-61772834D01*
X93395103Y-64313156D02*
X93395103Y-61772834D01*
X95525264Y-64313156D02*
X99085264Y-64313156D01*
X96495206Y-43993425D02*
X93345045Y-43993425D01*
X98065264Y-61772834D02*
X101625264Y-61772834D01*
X99035206Y-41453103D02*
X95475206Y-41453103D01*
X100605264Y-64313156D02*
X104165264Y-64313156D01*
X101575206Y-43993425D02*
X98015206Y-43993425D01*
X103145264Y-61772834D02*
X106705264Y-61772834D01*
X104115206Y-41453103D02*
X100555206Y-41453103D01*
X105685264Y-64313156D02*
X109245264Y-64313156D01*
X106655206Y-43993425D02*
X103095206Y-43993425D01*
X108225264Y-61772834D02*
X111785264Y-61772834D01*
X109195206Y-41453103D02*
X105635206Y-41453103D01*
X110765264Y-64313156D02*
X114325264Y-64313156D01*
X111735206Y-43993425D02*
X108175206Y-43993425D01*
X113305264Y-61772834D02*
X116865264Y-61772834D01*
X114275206Y-41453103D02*
X110715206Y-41453103D01*
X115845264Y-64313156D02*
X119405264Y-64313156D01*
X116815206Y-43993425D02*
X113255206Y-43993425D01*
X118385264Y-61772834D02*
X121535425Y-61772834D01*
X119355206Y-41453103D02*
X115795206Y-41453103D01*
X121485367Y-41453103D02*
X121485367Y-43993425D01*
X121485367Y-43993425D02*
X118335206Y-43993425D01*
X121535425Y-64313156D02*
X121535425Y-61772834D01*
D13*
X125515296Y-41453103D02*
X120925191Y-41453103D01*
X125515296Y-64313156D02*
X120925401Y-64313156D01*
X126515296Y-63313156D02*
X126515296Y-42453156D01*
X88415296Y-42453156D02*
G75*
G02*
X89415296Y-41453156I1000000J0D01*
G01*
X89415296Y-64313156D02*
G75*
G02*
X88415296Y-63313156I-1J999999D01*
G01*
X125515296Y-41453156D02*
G75*
G02*
X126515296Y-42453156I0J-1000000D01*
G01*
X126515296Y-63313156D02*
G75*
G02*
X125515296Y-64313156I-999999J-1D01*
G01*
%TD*%
M02*
