%TF.GenerationSoftware,KiCad,Pcbnew,10.0.2*%
%TF.CreationDate,2026-07-10T18:06:04+02:00*%
%TF.ProjectId,base,62617365-2e6b-4696-9361-645f70636258,1.0*%
%TF.SameCoordinates,Original*%
%TF.FileFunction,Soldermask,Bot*%
%TF.FilePolarity,Negative*%
%FSLAX46Y46*%
G04 Gerber Fmt 4.6, Leading zero omitted, Abs format (unit mm)*
G04 Created by KiCad (PCBNEW 10.0.2) date 2026-07-10 18:06:04*
%MOMM*%
%LPD*%
G01*
G04 APERTURE LIST*
G04 Aperture macros list*
%AMRotRect*
0 Rectangle, with rotation*
0 The origin of the aperture is its center*
0 $1 length*
0 $2 width*
0 $3 Rotation angle, in degrees counterclockwise*
0 Add horizontal line*
21,1,$1,$2,0,0,$3*%
G04 Aperture macros list end*
%ADD10C,0.900000*%
%ADD11RotRect,1.700000X1.700000X155.000000*%
%ADD12C,1.700000*%
%ADD13C,1.800000*%
%ADD14C,2.000000*%
%ADD15RotRect,1.700000X1.700000X205.000000*%
G04 APERTURE END LIST*
D10*
%TO.C,S1*%
X92662539Y-73964278D03*
X95240757Y-75498156D03*
%TD*%
D11*
%TO.C,J9*%
X73141153Y-67760849D03*
D12*
X75443175Y-68834299D03*
X72067703Y-70062871D03*
X74369724Y-71136321D03*
X70994252Y-72364893D03*
X73296274Y-73438343D03*
X69920802Y-74666914D03*
X72222824Y-75740365D03*
X68847351Y-76968936D03*
X71149373Y-78042387D03*
X67773901Y-79270958D03*
X70075923Y-80344408D03*
X66700451Y-81572980D03*
X69002472Y-82646430D03*
X65627000Y-83875001D03*
X67929022Y-84948452D03*
%TD*%
D13*
%TO.C,H8*%
X129000000Y-39324184D03*
%TD*%
D14*
%TO.C,J1*%
X87023000Y-45500001D03*
%TD*%
%TO.C,J3*%
X101568000Y-75620001D03*
%TD*%
%TO.C,J6*%
X109188000Y-75620001D03*
%TD*%
%TO.C,J4*%
X104108000Y-75620001D03*
%TD*%
D15*
%TO.C,J11*%
X134042826Y-41529299D03*
D12*
X136344848Y-40455849D03*
X135116276Y-43831321D03*
X137418298Y-42757870D03*
X136189727Y-46133343D03*
X138491749Y-45059892D03*
X137263177Y-48435364D03*
X139565199Y-47361914D03*
X138336628Y-50737386D03*
X140638649Y-49663936D03*
X139410078Y-53039408D03*
X141712100Y-51965958D03*
X140483528Y-55341430D03*
X142785550Y-54267979D03*
X141556979Y-57643451D03*
X143859000Y-56570001D03*
%TD*%
D13*
%TO.C,H2*%
X80486002Y-39324184D03*
%TD*%
%TO.C,H3*%
X77500000Y-63000000D03*
%TD*%
%TO.C,H7*%
X131986002Y-63000000D03*
%TD*%
%TO.C,H6*%
X136986002Y-84500000D03*
%TD*%
%TO.C,H4*%
X72500000Y-84500000D03*
%TD*%
%TO.C,H5*%
X104743001Y-70832903D03*
%TD*%
D11*
%TO.C,J8*%
X73141153Y-40455849D03*
D12*
X75443175Y-41529299D03*
X72067703Y-42757871D03*
X74369724Y-43831321D03*
X70994252Y-45059893D03*
X73296274Y-46133343D03*
X69920802Y-47361914D03*
X72222824Y-48435365D03*
X68847351Y-49663936D03*
X71149373Y-50737387D03*
X67773901Y-51965958D03*
X70075923Y-53039408D03*
X66700451Y-54267980D03*
X69002472Y-55341430D03*
X65627000Y-56570001D03*
X67929022Y-57643452D03*
%TD*%
D14*
%TO.C,J2*%
X87023000Y-42960001D03*
%TD*%
D13*
%TO.C,H1*%
X104743001Y-35150000D03*
%TD*%
D14*
%TO.C,J5*%
X106648000Y-75620001D03*
%TD*%
D15*
%TO.C,J10*%
X134042826Y-68834299D03*
D12*
X136344848Y-67760849D03*
X135116276Y-71136321D03*
X137418298Y-70062870D03*
X136189727Y-73438343D03*
X138491749Y-72364892D03*
X137263177Y-75740364D03*
X139565199Y-74666914D03*
X138336628Y-78042386D03*
X140638649Y-76968936D03*
X139410078Y-80344408D03*
X141712100Y-79270958D03*
X140483528Y-82646430D03*
X142785550Y-81572979D03*
X141556979Y-84948451D03*
X143859000Y-83875001D03*
%TD*%
M02*
